/* XPM */
static char * colect_xpm[] = {
"45 45 575 2",
"  	c #1E0E04",
". 	c #200F05",
"+ 	c #241206",
"@ 	c #231106",
"# 	c #1F0E04",
"$ 	c #190B02",
"% 	c #1F0F04",
"& 	c #1A0B01",
"* 	c #281000",
"= 	c #251207",
"- 	c #281408",
"; 	c #2C170A",
"> 	c #2A1609",
", 	c #261308",
"' 	c #1A0C02",
") 	c #281509",
"! 	c #1C0D03",
"~ 	c #201005",
"{ 	c #291509",
"] 	c #2B170A",
"^ 	c #221006",
"/ 	c #231107",
"( 	c #291508",
"_ 	c #1C0D02",
": 	c #221105",
"< 	c #241207",
"[ 	c #1B0D02",
"} 	c #180B01",
"| 	c #190C02",
"1 	c #180B02",
"2 	c #170A01",
"3 	c #180A01",
"4 	c #1D0D04",
"5 	c #211005",
"6 	c #200E03",
"7 	c #1A0E02",
"8 	c #302916",
"9 	c #645F3C",
"0 	c #ADA66A",
"a 	c #DBD789",
"b 	c #EEEC93",
"c 	c #F3F191",
"d 	c #F6F389",
"e 	c #F7F180",
"f 	c #F5F17E",
"g 	c #EFEC7C",
"h 	c #DDD873",
"i 	c #B2AB5B",
"j 	c #6F6934",
"k 	c #3D3317",
"l 	c #281609",
"m 	c #2B160A",
"n 	c #281409",
"o 	c #241106",
"p 	c #241C0C",
"q 	c #5E5A3C",
"r 	c #A9A578",
"s 	c #E1DDAA",
"t 	c #F1EDB9",
"u 	c #EFEDB5",
"v 	c #EBE8AA",
"w 	c #E9E39C",
"x 	c #EAE18E",
"y 	c #EDE180",
"z 	c #F0E57B",
"A 	c #F4E57D",
"B 	c #F5E57D",
"C 	c #F2E879",
"D 	c #E2DD72",
"E 	c #B2AE5C",
"F 	c #6B6539",
"G 	c #3A2A17",
"H 	c #271408",
"I 	c #28200F",
"J 	c #767154",
"K 	c #C4C198",
"L 	c #E7E5B9",
"M 	c #E6DFB7",
"N 	c #D3C79C",
"O 	c #BBAB7C",
"P 	c #A69666",
"Q 	c #9B8D5D",
"R 	c #9D8E56",
"S 	c #A99755",
"T 	c #BAA35C",
"U 	c #CEB166",
"V 	c #DFBE6B",
"W 	c #EACD6A",
"X 	c #F2E072",
"Y 	c #ECE883",
"Z 	c #CDCC82",
"` 	c #8B8255",
" .	c #42321D",
"..	c #251406",
"+.	c #321F00",
"@.	c #221808",
"#.	c #726D50",
"$.	c #CAC49F",
"%.	c #E5E1B7",
"&.	c #D1C89D",
"*.	c #A59972",
"=.	c #7C6E53",
"-.	c #615243",
";.	c #54463F",
">.	c #50443F",
",.	c #584A3E",
"'.	c #675541",
").	c #796742",
"!.	c #907D45",
"~.	c #AB944A",
"{.	c #C4A84B",
"].	c #D9BC52",
"^.	c #E9D875",
"/.	c #F0EB9D",
"(.	c #D8D29D",
"_.	c #90875F",
":.	c #3A2C15",
"<.	c #2A1509",
"[.	c #251306",
"}.	c #1F1300",
"|.	c #564E33",
"1.	c #BFB78D",
"2.	c #E2DAB1",
"3.	c #C3B88E",
"4.	c #897D5D",
"5.	c #564B42",
"6.	c #3B323A",
"7.	c #3A323E",
"8.	c #443E45",
"9.	c #474446",
"0.	c #4D4645",
"a.	c #594A46",
"b.	c #625140",
"c.	c #6E5D3B",
"d.	c #86723E",
"e.	c #9F893F",
"f.	c #B79C41",
"g.	c #CEB353",
"h.	c #EAD784",
"i.	c #F3ECB7",
"j.	c #CECBA3",
"k.	c #746D4D",
"l.	c #2C190B",
"m.	c #251305",
"n.	c #311B00",
"o.	c #2C2110",
"p.	c #9C9063",
"q.	c #E3D8A2",
"r.	c #C7BA8C",
"s.	c #857556",
"t.	c #4B3F42",
"u.	c #322B3C",
"v.	c #443B40",
"w.	c #473F43",
"x.	c #3D383E",
"y.	c #353436",
"z.	c #363232",
"A.	c #433635",
"B.	c #5B4D42",
"C.	c #706048",
"D.	c #7C6642",
"E.	c #8B733E",
"F.	c #A08840",
"G.	c #B39943",
"H.	c #CFB75C",
"I.	c #EFE09E",
"J.	c #F1EBBF",
"K.	c #B6AE89",
"L.	c #49402A",
"M.	c #221402",
"N.	c #362201",
"O.	c #524629",
"P.	c #D3C686",
"Q.	c #D6CC8E",
"R.	c #95875B",
"S.	c #594B3D",
"T.	c #47373D",
"U.	c #4B4346",
"V.	c #3F373F",
"W.	c #322B33",
"X.	c #281E20",
"Y.	c #241715",
"Z.	c #241511",
"`.	c #281814",
" +	c #392C25",
".+	c #584A35",
"++	c #7A663F",
"@+	c #89733F",
"#+	c #95803E",
"$+	c #A58C3E",
"%+	c #B6A046",
"&+	c #D7C375",
"*+	c #F2E9B7",
"=+	c #E1DBB2",
"-+	c #787151",
";+	c #1D1204",
">+	c #1B0C03",
",+	c #201201",
"'+	c #3B2901",
")+	c #251308",
"!+	c #8E7D46",
"~+	c #E5D68E",
"{+	c #B8A76B",
"]+	c #766445",
"^+	c #5A4C3D",
"/+	c #675444",
"(+	c #4E403F",
"_+	c #2F252D",
":+	c #2A1A1A",
"<+	c #2B180E",
"[+	c #2C180D",
"}+	c #3A2A1A",
"|+	c #675130",
"1+	c #947640",
"2+	c #9E853E",
"3+	c #A38E3D",
"4+	c #A9963E",
"5+	c #C1A957",
"6+	c #E6D799",
"7+	c #F3ECBD",
"8+	c #ADA476",
"9+	c #302712",
"0+	c #211006",
"a+	c #BEA65C",
"b+	c #DDC77C",
"c+	c #9B8650",
"d+	c #6E5B3D",
"e+	c #7C6947",
"f+	c #746143",
"g+	c #45352F",
"h+	c #2C1B19",
"i+	c #2C170C",
"j+	c #2E190C",
"k+	c #4A341C",
"l+	c #866937",
"m+	c #AC8E43",
"n+	c #AA943D",
"o+	c #AE973E",
"p+	c #B39746",
"q+	c #D6C074",
"r+	c #F2E9AC",
"s+	c #D3C689",
"t+	c #433A20",
"u+	c #281707",
"v+	c #372500",
"w+	c #D3B567",
"x+	c #CBB065",
"y+	c #907A44",
"z+	c #806E40",
"A+	c #96824D",
"B+	c #796740",
"C+	c #3E2F1F",
"D+	c #2F1C0D",
"E+	c #6B5327",
"F+	c #AF9041",
"G+	c #B89D40",
"H+	c #B49B41",
"I+	c #AA8F3F",
"J+	c #C2A956",
"K+	c #E9DB8F",
"L+	c #E6D389",
"M+	c #5D532D",
"N+	c #291707",
"O+	c #331D00",
"P+	c #D2B36D",
"Q+	c #BCA355",
"R+	c #967C42",
"S+	c #A08B47",
"T+	c #AB954C",
"U+	c #776437",
"V+	c #382717",
"W+	c #271308",
"X+	c #55431A",
"Y+	c #A48B39",
"Z+	c #C9AD4A",
"`+	c #BBA34C",
" @	c #A78F40",
".@	c #B19747",
"+@	c #DAC572",
"@@	c #E3CD7B",
"#@	c #706533",
"$@	c #241504",
"%@	c #412C04",
"&@	c #221107",
"*@	c #211004",
"=@	c #2B1609",
"-@	c #C9AC6B",
";@	c #B59D4D",
">@	c #A08542",
",@	c #BCA652",
"'@	c #BFA950",
")@	c #78672F",
"!@	c #332210",
"~@	c #4A3A14",
"{@	c #998537",
"]@	c #D7BB5A",
"^@	c #CAB060",
"/@	c #AA9144",
"(@	c #A88C41",
"_@	c #C7AC58",
":@	c #D1B967",
"<@	c #706331",
"[@	c #3D2B02",
"}@	c #1D0D03",
"|@	c #BB9F58",
"1@	c #B89C48",
"2@	c #B39848",
"3@	c #D7C36F",
"4@	c #D6C56A",
"5@	c #857637",
"6@	c #2A1F0A",
"7@	c #473C17",
"8@	c #9F8D41",
"9@	c #E3C766",
"0@	c #D9B86B",
"a@	c #B09147",
"b@	c #A2863E",
"c@	c #B3994A",
"d@	c #BAA252",
"e@	c #64582C",
"f@	c #3E2B03",
"g@	c #AC9041",
"h@	c #BC9E43",
"i@	c #C4A952",
"j@	c #E8D88C",
"k@	c #EBDD8F",
"l@	c #A09252",
"m@	c #3B3011",
"n@	c #574C21",
"o@	c #B7A552",
"p@	c #EFD472",
"q@	c #DFBF6D",
"r@	c #B09047",
"s@	c #9F8140",
"t@	c #A58943",
"u@	c #A78A44",
"v@	c #554823",
"w@	c #211302",
"x@	c #392801",
"y@	c #9B7F34",
"z@	c #BA9D3F",
"A@	c #CCAE4F",
"B@	c #ECDD96",
"C@	c #F5ECB3",
"D@	c #C6B77B",
"E@	c #625528",
"F@	c #1D1203",
"G@	c #281E07",
"H@	c #786D33",
"I@	c #D4C566",
"J@	c #F3E17B",
"K@	c #D9C16B",
"L@	c #A98B45",
"M@	c #9C7F41",
"N@	c #987F40",
"O@	c #95783F",
"P@	c #413217",
"Q@	c #201202",
"R@	c #372700",
"S@	c #7F672D",
"T@	c #B59A3C",
"U@	c #D1B048",
"V@	c #ECD987",
"W@	c #F9F2BE",
"X@	c #E7DA9B",
"Y@	c #9C8D4B",
"Z@	c #463C16",
"`@	c #1B0F02",
" #	c #201504",
".#	c #594D20",
"+#	c #ADA150",
"@#	c #EBE27D",
"##	c #F0E782",
"$#	c #C8B661",
"%#	c #A18442",
"&#	c #947C3F",
"*#	c #88743F",
"=#	c #7B6639",
"-#	c #372512",
";#	c #251400",
">#	c #5B471F",
",#	c #A68B38",
"'#	c #CBAE42",
")#	c #E9D067",
"!#	c #F8EEA6",
"~#	c #F8F0A5",
"{#	c #DACB6F",
"]#	c #94873B",
"^#	c #4B4317",
"/#	c #201604",
"(#	c #1F1403",
"_#	c #53471D",
":#	c #9E9048",
"<#	c #DED276",
"[#	c #F4EF94",
"}#	c #E6DB87",
"|#	c #B59E4F",
"1#	c #987D3F",
"2#	c #87723E",
"3#	c #7B653E",
"4#	c #5F4B2E",
"5#	c #311D0E",
"6#	c #251208",
"7#	c #221106",
"8#	c #171000",
"9#	c #31240C",
"0#	c #867033",
"a#	c #B99D3F",
"b#	c #E5C050",
"c#	c #F5E47C",
"d#	c #F8F591",
"e#	c #F8F181",
"f#	c #DCD364",
"g#	c #A79E46",
"h#	c #756C2F",
"i#	c #564B20",
"j#	c #4C3F19",
"k#	c #56471B",
"l#	c #76642A",
"m#	c #A99A50",
"n#	c #DCD27E",
"o#	c #F4EF9F",
"p#	c #F1EA9D",
"q#	c #D0BC73",
"r#	c #A38743",
"s#	c #8C7340",
"t#	c #766340",
"u#	c #6B583C",
"v#	c #473422",
"w#	c #2D180B",
"x#	c #291B06",
"y#	c #422E08",
"z#	c #1D1103",
"A#	c #564720",
"B#	c #987F38",
"C#	c #D0AD4D",
"D#	c #EED86C",
"E#	c #F6F17C",
"F#	c #F7F781",
"G#	c #F7F77C",
"H#	c #F1EA73",
"I#	c #D9CF68",
"J#	c #BFB65E",
"K#	c #B6AC59",
"L#	c #BFB15F",
"M#	c #D9C879",
"N#	c #EFE39D",
"O#	c #F7F4B7",
"P#	c #F4F0B4",
"Q#	c #DFD084",
"R#	c #AE974B",
"S#	c #8F773F",
"T#	c #7A6141",
"U#	c #65513E",
"V#	c #51452F",
"W#	c #352515",
"X#	c #403307",
"Y#	c #31230E",
"Z#	c #6C572D",
"`#	c #A28944",
" $	c #D1BB5D",
".$	c #EEE173",
"+$	c #F6F47D",
"@$	c #F7F786",
"#$	c #F9F78F",
"$$	c #F9F798",
"%$	c #F8F5A0",
"&$	c #F8F4A7",
"*$	c #F9F4B2",
"=$	c #F9F5C5",
"-$	c #F7F6CE",
";$	c #F3EEC2",
">$	c #E1D397",
",$	c #BAA35B",
"'$	c #907A3F",
")$	c #7B6240",
"!$	c #614E3F",
"~$	c #523B35",
"{$	c #3C291F",
"]$	c #2D190C",
"^$	c #241107",
"/$	c #2B1A08",
"($	c #48360B",
"_$	c #1B0F03",
":$	c #3C2E18",
"<$	c #6D5730",
"[$	c #9B8342",
"}$	c #C9B35A",
"|$	c #E5D76E",
"1$	c #F2EA86",
"2$	c #F7F29E",
"3$	c #F8F5B5",
"4$	c #F8F6C6",
"5$	c #F8F5D0",
"6$	c #F8F4D4",
"7$	c #F5F0CB",
"8$	c #ECE3B1",
"9$	c #D6C787",
"0$	c #B49E5C",
"a$	c #927843",
"b$	c #746040",
"c$	c #5C4A3F",
"d$	c #463C38",
"e$	c #372924",
"f$	c #28160D",
"g$	c #271905",
"h$	c #48370B",
"i$	c #201206",
"j$	c #3B2C19",
"k$	c #654E30",
"l$	c #8A703F",
"m$	c #AD974D",
"n$	c #CAB760",
"o$	c #DCCC7A",
"p$	c #E5D992",
"q$	c #E9DEA1",
"r$	c #E7DDA4",
"s$	c #E0D49A",
"t$	c #D3C282",
"u$	c #BEA963",
"v$	c #A18A4C",
"w$	c #836E41",
"x$	c #69563D",
"y$	c #504141",
"z$	c #38313A",
"A$	c #2C2626",
"B$	c #20140C",
"C$	c #1B0D03",
"D$	c #1A0C01",
"E$	c #291600",
"F$	c #2C180B",
"G$	c #392418",
"H$	c #4E3B2A",
"I$	c #685637",
"J$	c #826C3F",
"K$	c #998048",
"L$	c #A68E4F",
"M$	c #AB9452",
"N$	c #A99450",
"O$	c #A18A4D",
"P$	c #927946",
"Q$	c #7F6740",
"R$	c #51453C",
"S$	c #3B3238",
"T$	c #2E2334",
"U$	c #2B1C23",
"V$	c #2B180F",
"W$	c #443008",
"X$	c #261407",
"Y$	c #2E190E",
"Z$	c #35231A",
"`$	c #413026",
" %	c #4E3C32",
".%	c #594439",
"+%	c #5F4B3F",
"@%	c #5D4B40",
"#%	c #56473F",
"$%	c #4C3E3D",
"%%	c #3F333B",
"&%	c #31293A",
"*%	c #282139",
"=%	c #261B2E",
"-%	c #2A1815",
";%	c #211602",
">%	c #3A2901",
",%	c #231402",
"'%	c #452E06",
")%	c #261307",
"!%	c #221302",
"~%	c #331E00",
"{%	c #1E1500",
"]%	c #1F0E05",
"^%	c #1D0E04",
"/%	c #1F0F05",
"(%	c #1C0C01",
"  . + + + + + + @ #       $ % + + + + + + + + + + + + + + + + + + + + + + + + + + + % & * ",
"= - ; ; ; ; ; ; > , , , = ' + ; ; ; ; ; ; ; ; ; ; ; ; ; ; ; ; ; ; ; ; ; ; ; ; ; ; ; + & * ",
") ; ; ; ; ; ; ; ; ; ; ; > ! + ; ; ; ; ; ; ; ; ; ; ; ; ; ; ; ; ; ; ; ; ; ; ; ; ; ; ; + & * ",
") ; ; ; ; ; ; ; ; ; ; ; > ! + ; ; ; ; ; ; ; ; ; ; ; ; ; ; ; ; ; ; ; ; ; ; ; ; ; ; - ~ & * ",
", { { { { { ] ; ; ; ; ; > ! + ; ; ; ; ; ; ; ; ; ; ; ; ; ; ; ; ; ; ; { { { { { { ) =   & * ",
"^ ^ ^ ^ ^ / ( > > > > > ( _ : > > > > > > > > > > > > > > > > > > > < ^ ^ ^ ^ ^ ^ ^   & * ",
"$ $ $ $ $ ' [ _ _ _ _ _ [ } | _ _ _ _ _ _ _ _ _ _ _ _ _ _ _ _ _ _ _ ' $ $ $ $ $ $ $ 1 & * ",
"2 2 2 2 2 2 2 2 2 2 2 2 2 2 2 2 2 2 2 3 4               5 + + + + + + + + + + :       6 * ",
"2 2 2 2 2 2 2 2 2 2 2 2 7 8 9 0 a b c d e f g h i j k l { ; ; ; ; ; ; ; ; ; m n / / / o * ",
"2 2 2 2 2 2 2 2 2 2 2 p q r s t u v w x y z A B C D E F G ; ; ; ; ; ; ; ; ; H / / / / o * ",
"2 2 2 2 2 2 2 2 2 2 I J K L M N O P Q R S T U V W X Y Z `  .; ; ; ; ; ; m H < / / / / ..+.",
"2 2 2 2 2 2 2 2 2 @.#.$.%.&.*.=.-.;.>.,.'.).!.~.{.].^./.(._.:.; ; ; <.{ n < / / / / / [.}.",
"2 2 2 2 2 2 2 2 2 |.1.2.3.4.5.6.7.8.9.0.a.b.c.d.e.f.g.h.i.j.k.l.> > < ^ ^ ^ ^ ^ ^ ^ ^ m.n.",
"2 2 2 2 2 2 2 2 o.p.q.r.s.t.u.v.w.x.y.z.A.B.C.D.E.F.G.H.I.J.K.L.! ! ' ' ' ' ' ' ' ' ' M.N.",
"      $ '       O.P.Q.R.S.T.U.V.W.X.Y.Z.`. +.+++@+#+$+%+&+*+=+-+;+2 2 2 2 2 >+      >+,+'+",
"/ / / >+  )+)+)+!+~+{+]+^+/+(+_+:+<+; ; ; [+}+|+1+2+3+4+5+6+7+8+9+2 2 2 2 2 4 0+/ / . M.N.",
"/ / / >+5 ; ; ; a+b+c+d+e+f+g+h+i+; ; ; ; ; j+k+l+m+n+o+p+q+r+s+t+2 2 2 2 2 2 ! / / / u+v+",
"/ / / >+5 ; ; ; w+x+y+z+A+B+C+[+; ; ; ; ; { , D+E+F+G+H+I+J+K+L+M+2 2 2 2 2 2 1 ! 0+/ N+O+",
"/ / / >+5 ; ; ; P+Q+R+S+T+U+V+; ; ; ; ; ; { W+- X+Y+Z+`+ @.@+@@@#@2 2 2 2 2 2 $ ! 0+0+$@%@",
"&@&@&@>+*@=@=@=@-@;@>@,@'@)@!@=@=@=@=@=@=@=@=@=@~@{@]@^@/@(@_@:@<@2 2 2 2 2 2 >+&@&@  ,+[@",
"' ' ' } | }@}@}@|@1@2@3@4@5@6@}@}@}@}@}@}@}@}@}@7@8@9@0@a@b@c@d@e@2 2 2 2 2 2 } ' ' $ ,+f@",
"2 2 2 2 2 2 2 2 g@h@i@j@k@l@m@2 2 2 2 2 2 2 2 2 n@o@p@q@r@s@t@u@v@2 2 2 2 2 2 2 2 2 2 w@x@",
"2 2 2 2 2 2 2 2 y@z@A@B@C@D@E@F@2 2 2 2 2 2 2 G@H@I@J@K@L@M@N@O@P@}@}@}@}@}@}@}@}@}@! Q@R@",
"2 2 2 2 2 2 2 2 S@T@U@V@W@X@Y@Z@`@2 2 2 2 2  #.#+#@###$#%#&#*#=#-#=@=@=@=@=@=@=@=@=@H [.;#",
"2 2 2 2 2 2 2 2 >#,#'#)#!#~#{#]#^#/#2 2 2 (#_#:#<#[#}#|#1#2#3#4#5#; ; ; ; ; ; ; ; n 6#7#8#",
"2 2 2 2 2 2 2 2 9#0#a#b#c#d#e#f#g#h#i#j#k#l#m#n#o#p#q#r#s#t#u#v#w#; ; ; ; ; ; ; ; , / x#y#",
"2 2 2 2 2 2 2 2 z#A#B#C#D#E#F#G#H#I#J#K#L#M#N#O#P#Q#R#S#T#U#V#W#; ; ; ; ; ; ; ; ] , / N+X#",
"2 2 2 2 2 2 2 2 } Y#Z#`# $.$+$@$#$$$%$&$*$=$-$;$>$,$'$)$!$~${$]$; ; ; ; ; ; n )+)+^$/ /$($",
"2 2 2 2 2 2 2 2 2 _$:$<$[$}$|$1$2$3$4$5$6$7$8$9$0$a$b$c$d$e$f$+ + + + + + + ~         g$h$",
"' ' ' ' ' ' ' ' $ 2 i$j$k$l$m$n$o$p$q$r$s$t$u$v$w$x$y$z$A$B$! ! C$' ' ' ' ' ' ' ' ' $ D$E$",
"^ ^ ^ ^ ^ ^ ^ ^ . 2 [.F$G$H$I$J$K$L$M$N$O$P$Q$x$R$S$T$U$V$> > > - ^ ^ ^ ^ ^ ^ ^ ^ ^   M.W$",
"/ / / / / / / / . 2 X$; ; Y$Z$`$ %.%+%@%#%$%%%&%*%=%-%i+; ; ; ; m { { { { { { { { { : ;%>%",
"/ / / / / / / / . 2 X$; ; ; ; ; ; ; ; ; ; ; ; ; ; ; ; ; ; ; ; ; ; ; ; ; ; ; ; ; ; ; + ,%'%",
"/ / / / / / / / . 2 )%; ; ; ; ; ; ; ; ; ; ; ; ; ; ; ; ; ; ; ; ; ; ; ; ; ; ; ; ; ; ; + !%~%",
"/ / / / / / / / . 2 ^ , , , , , , , n ; ; ; ; ; ; ; ; ; ; ; ; ; ; ; ; ; ; ; ; ; ; ; + D${%",
"                ! 2 !               ~ + + + + + + + + + + + + + + + + + + + + + + + % & * ",
"1 $ $ $ $ $ $ $ $ $ $ $ $ $ $ $ 2 2 2 2 2 2 2 2 2 3 $ $ $ $ $ $ $ 2 2 2 2 2 2 2 2 2 2 & * ",
"  ^ ^ ^ ^ ^ ^ ^ ^ ^ ^ ^ ^ ^ ^ . 3 2 2 2 2 2 2 2 2 >+^ ^ ^ ^ ^ ^ ]%2 2 2 2 2 2 2 2 2 2 & * ",
"  / / / / / / / / / / / / / / 0+3 2 2 2 2 2 2 2 2 $ }@}@}@}@}@}@>+2 2 2 2 2 2 2 2 2 2 & * ",
"  / / / / / / / / / / / / / / 0+3 2 2 2 2 2 2 2 2 2 2 2 2 2 2 2 2 2 2 2 2 2 2 2 2 2 2 & * ",
"  / / / / / / / / / / / / / / 0+3 2 2 2 2 2 2 2 2 2 2 2 2 2 2 2 2 2 2 2 2 2 2 2 2 2 2 & * ",
"  / / / / / / / / / / / / / / 0+3 ^%. /%$ 2 2 2 2 2 2 2 2 2 2 2 2 2 2 2 $ /%>+2 2 2 2 & * ",
"C$                            4 2 !     $ 2 2 2 2 2 2 2 2 2 2 2 2 2 2 2 1   ' 2 2 2 2 & * ",
"& & & & & & & & & & & & & & & & & & & & & & & & & & & & & & & & & & & & & & & & & & & (%* ",
"* * * * * * * * * * * * * * * * * * * * * * * * * * * * * * * * * * * * * * * * * * * * * "};
