/* XPM */
static char * wall_xpm[] = {
"45 45 194 2",
"  	c #422D05",
". 	c #402C04",
"+ 	c #3F2B03",
"@ 	c #3F2C03",
"# 	c #483209",
"$ 	c #483A0D",
"% 	c #48380C",
"& 	c #48340A",
"* 	c #48360B",
"= 	c #48330A",
"- 	c #483109",
"; 	c #483309",
"> 	c #47340A",
", 	c #352100",
"' 	c #1A1100",
") 	c #241000",
"! 	c #281000",
"~ 	c #442E06",
"{ 	c #472F07",
"] 	c #483B0D",
"^ 	c #3E2B03",
"/ 	c #483F10",
"( 	c #483D0F",
"_ 	c #48350A",
": 	c #48350B",
"< 	c #484008",
"[ 	c #483F0C",
"} 	c #483E0D",
"| 	c #483108",
"1 	c #352200",
"2 	c #412D04",
"3 	c #452E06",
"4 	c #483008",
"5 	c #483C0B",
"6 	c #483F0F",
"7 	c #48390D",
"8 	c #484003",
"9 	c #484002",
"0 	c #483B0C",
"a 	c #403106",
"b 	c #341F00",
"c 	c #1B1200",
"d 	c #422F06",
"e 	c #432E05",
"f 	c #251A03",
"g 	c #201302",
"h 	c #201202",
"i 	c #201102",
"j 	c #201402",
"k 	c #201502",
"l 	c #201501",
"m 	c #1E1001",
"n 	c #1D1001",
"o 	c #1C0E01",
"p 	c #170B01",
"q 	c #190B01",
"r 	c #1B0B01",
"s 	c #423006",
"t 	c #432D05",
"u 	c #251405",
"v 	c #200F05",
"w 	c #241206",
"x 	c #271407",
"y 	c #251307",
"z 	c #1C0D03",
"A 	c #1D0D03",
"B 	c #231105",
"C 	c #49360B",
"D 	c #281607",
"E 	c #261308",
"F 	c #2A1609",
"G 	c #2C170A",
"H 	c #2B160A",
"I 	c #281409",
"J 	c #201005",
"K 	c #1F0F04",
"L 	c #3C2A02",
"M 	c #2A1509",
"N 	c #231106",
"O 	c #352300",
"P 	c #382800",
"Q 	c #261507",
"R 	c #291509",
"S 	c #2B170A",
"T 	c #271408",
"U 	c #331F00",
"V 	c #311B00",
"W 	c #251206",
"X 	c #241107",
"Y 	c #241207",
"Z 	c #271308",
"` 	c #1C1100",
" .	c #1B0D03",
"..	c #1B0C03",
"+.	c #1E0E03",
"@.	c #1B0D02",
"#.	c #1A0C02",
"$.	c #211000",
"%.	c #180B01",
"&.	c #170A01",
"*.	c #190B02",
"=.	c #1E0E04",
"-.	c #221005",
";.	c #201004",
">.	c #311F00",
",.	c #321F00",
"'.	c #251208",
").	c #231107",
"!.	c #2E1A00",
"~.	c #1F1300",
"{.	c #261406",
"].	c #362201",
"^.	c #291808",
"/.	c #3B2901",
"(.	c #251605",
"_.	c #1D0C03",
":.	c #372500",
"<.	c #241106",
"[.	c #261307",
"}.	c #180B02",
"|.	c #211006",
"1.	c #1D1002",
"2.	c #331D00",
"3.	c #211005",
"4.	c #261606",
"5.	c #3A2901",
"6.	c #412C04",
"7.	c #1F0F05",
"8.	c #3D2B02",
"9.	c #251308",
"0.	c #200F06",
"a.	c #241304",
"b.	c #210F05",
"c.	c #1D0E04",
"d.	c #1F1302",
"e.	c #392801",
"f.	c #372700",
"g.	c #331E00",
"h.	c #251400",
"i.	c #280F00",
"j.	c #170F00",
"k.	c #171000",
"l.	c #433A0D",
"m.	c #43330A",
"n.	c #432C06",
"o.	c #251606",
"p.	c #423A03",
"q.	c #422E08",
"r.	c #311D00",
"s.	c #311C00",
"t.	c #301900",
"u.	c #1A0C01",
"v.	c #281408",
"w.	c #281906",
"x.	c #402B04",
"y.	c #403307",
"z.	c #180A01",
"A.	c #271707",
"B.	c #382700",
"C.	c #1D0D04",
"D.	c #48380B",
"E.	c #48370B",
"F.	c #46350A",
"G.	c #443007",
"H.	c #1F1102",
"I.	c #1E0F04",
"J.	c #291600",
"K.	c #452F07",
"L.	c #231304",
"M.	c #221105",
"N.	c #443209",
"O.	c #443008",
"P.	c #281507",
"Q.	c #221106",
"R.	c #423509",
"S.	c #462F07",
"T.	c #473008",
"U.	c #271607",
"V.	c #201603",
"W.	c #47370B",
"X.	c #1E1102",
"Y.	c #443308",
"Z.	c #251207",
"`.	c #190C01",
" +	c #281700",
".+	c #1E1500",
"++	c #3D2B03",
"@+	c #200F04",
"#+	c #392800",
"$+	c #342100",
"%+	c #362400",
"&+	c #221006",
"*+	c #2F1900",
"=+	c #2F1800",
"  . + @ # $ % & * = - - ; > + , ' ) ! ! ! ! ! ! ! ! ! ! ! ! ! ! ! ! ! ! ! ! ! ! ! ! ! ! ! ",
"~ { ] ^ / ( $ _ : < [ } | # ^ 1 ' ) ! ! ! ! ! ! ! ! ! ! ! ! ! ! ! ! ! ! ! ! ! ! ! ! ! ! ! ",
"2 3 4   5 6 7 = % 8 9 0 a . . b c ) ! ! ! ! ! ! ! ! ! ! ! ! ! ! ! ! ! ! ! ! ! ! ! ! ! ! ! ",
"^ d e f g h h i j k l g m n m o p q q q q q q q q q q q q q q q q q q q q q q q q q r ! ! ",
"^ s t u v w x x x x x y v v v z A x x x x x x x x x x x x x x x x x x x x x x x x B q ! ! ",
"  C . D E F G G G G G H I I I J K G G G G G G G G G G G G G G G G G G G G G G G G x q ! ! ",
"~ . L D M G G G G G G G G G G N K G G G G G G G G G G G G G G G G G G G G G G G H y q ! ! ",
", O P Q R H H H H G G G G G G N K G G G G G G G G G G G G G G G G G S H H H H H T v q ! ! ",
"1 U V W X Y Y Y Y F G G G G G N K G G G G G G G G G G G G G G G G G Z Y Y Y Y Y X v q ! ! ",
"` ` `  ...........+.K K K K K @.#.K K K K K K K K K K K K K K K K K z ............#.q ! ! ",
"$.$.$.%.&.&.&.&.&.&.&.&.&.&.&.&.&.&.&.&.&.*.=.=.=.=.=.=.=.-.N N N N N N N N N K =.=.;.>.,.",
"! ! ! q &.&.&.&.&.&.&.&.&.&.&.&.&.&.&.&.&.z E E E E E E E F G G G G G G G G F '.).).W !.~.",
"! ! ! q &.&.&.&.&.&.&.&.&.&.&.&.&.&.&.&.&.K G G G G G G G G G G G G G G G F Y ).).).{.U V ",
"! ! ! q &.&.&.&.&.&.&.&.&.&.&.&.&.&.&.&.&.K G G G G G G G G G G G G G G F Y ).).).).D . ].",
"! ! ! q &.&.&.&.&.&.&.&.&.&.&.&.&.&.&.&.&.z Z S G G G G G G G G G G I E '.).).).).).^.^ /.",
"! ! ! q &.&.&.&.&.&.&.&.&.&.&.&.&.&.&.&.&.*.=.B N N N N N N N N N N K =.=.=.=.=.=.=.(.. ].",
"! ! ! _.....#.&.......z K K K K K K K K K K K K K K K K K K K A &.&.&.&.&.&.......#.i   :.",
"! ! ! <.).).v *.).Y Y Z G G G G G G G G G G G G G G G G S H H [.&.&.&.&.&.}.|.).).v 1.e 2.",
"! ! ! <.).).v #.M H H S G G G G G G G G G G G G G G G S '.Y Y 3.&.&.&.&.&.&.}.v ).).4.5.6.",
"! ! ! <.).).v #.F G G G G G G G G G G G G G S Z E E E E ).).).v &.&.&.&.&.&.&.#.7.).D ^ 8.",
"! ! ! <.).).v #.F G G G G G G G G G G G G G G I I I I I I I 9.v &.&.&.&.&.&.&.z 0.|.a.+ ^ ",
"! ! ! b.v v c.*.[.x x x x x x x x x x x x x x x x x x x x x w c.&.&.&.&.&.&.&.c.v c.d.  e.",
"! ! ! q &.&.&.&.&.&.&.&.&.&.&.&.&.&.&.&.&.&.&.&.&.&.&.&.&.&.&.&.&.&.&.&.&.&.&.&.&.&.m P f.",
"! ! ! q &.&.&.&.&.&.&.&.&.&.&.&.&.&.&.&.&.&.&.&.&.&.&.&.&.&.&.&.&.&.&.&.&.&.&.&.&.&.o g.h.",
"i.i.i.q &.&.&.&.&.&.&.&.&.&.&.&.&.&.&.&.&.&.&.&.&.&.A x x x x x x x x x x x x x x y K j.k.",
"l.m.n.m &.&.&.&.&.&.&.&.&.&.&.&.&.&.&.&.&.&.&.&.&.&.K G G G G G G G G G G G G G F E o.p.q.",
"r.s.t.u.&.&.&.&.&.&.&.&.&.&.&.&.&.&.&.&.&.&.&.&.&.&.K G G G G G G G G G G G G G v.).w.x.y.",
"P e.L n &.&.&.&.&.&.&.&.&.&.&.&.&.&.&.&.&.&.&.&.%.z.K G G G G G G G G G G G S H T ).A.* * ",
"B.6.^ d.&.&.&.&.&.&.&.&.&.&.&.&.&.&.&.&.&.&.&.&.7.C.K G G G G G G G G G G S '.Y X ).{.D.E.",
"@ F.G.H.&.&.&.&.&.&.&.&.&.&.&.&.&.&.&.&.&.&.&.&.#.*.#.K K K K K K K K K K I.z ......z J.J.",
"8.6.K.L.=.=.=.=.=.=.=.z %.M.N N N N N N N N N N N N N N N N N N B =.=.=.=.=.=.=.=.z d.N.O.",
". ~ * P.).).).).).).).v #.F G G G G G G G G G G G G G G G G G G S Z E E E E E E E Q.m R.5.",
"e S.T.U.).).).).).).).v #.F G G G G G G G G G G G G G G G G G G G G G G G G G G G x V.4 3 ",
"~ W.^ D ).).).).).).).v #.F G G G G G G G G G G G G G G G G G G G G G G G G G G G x X.3 g.",
". Y.6.D ).).).).).).).v *.Z.E E E E E E R G G G G G G G G G G G G G G G G G G G G x `. +.+",
"++T.~ a.=.=.=.=.=.=.=.z z.C.=.=.=.=.=.=.J N N N N N N N N N N N N N N N N N N N N @+q ! ! ",
"^ /.#+H.#...........................&.&.&.&.&.&.&.&.}.............&.&.&.&.&.&.&.&.&.q ! ! ",
"U $+%+o v ).).).).).).).).).).).).&+}.&.&.&.&.&.&.&...&+&+&+&+&+|.}.&.&.&.&.&.&.&.&.q ! ! ",
"t.*+=+u.v ).).).).).).).).).).).).&+}.&.&.&.&.&.&.&.&.}.}.}.}.}.}.&.&.&.&.&.&.&.&.&.q ! ! ",
"k.k.k.p v ).).).).).).).).).).).).&+}.&.&.&.&.&.&.&.&.&.&.&.&.&.&.&.&.&.&.&.&.&.&.&.q ! ! ",
"! ! ! q v ).).).).).).).).).).).).&+}.z =.z &.&.&.&.&.&.&.&.&.&.&.&.&.&.*.C.z.&.&.&.q ! ! ",
"! ! ! q c.v v v v v v v v v v v v 7.%.c.v c.&.&.&.&.&.&.&.&.&.&.&.&.&.&.#.7.%.&.&.&.q ! ! ",
"! ! ! r q q q q q q q q q q q q q q q q q q q q q q q q q q q q q q q q q q q q q q r ! ! ",
"! ! ! ! ! ! ! ! ! ! ! ! ! ! ! ! ! ! ! ! ! ! ! ! ! ! ! ! ! ! ! ! ! ! ! ! ! ! ! ! ! ! ! ! ! ",
"! ! ! ! ! ! ! ! ! ! ! ! ! ! ! ! ! ! ! ! ! ! ! ! ! ! ! ! ! ! ! ! ! ! ! ! ! ! ! ! ! ! ! ! ! "};
