/* XPM */
static char *_66b534cf7dd4b81af14f3eb79de2af5t6O2I6NvwlAsa0Fd[] = {
/* columns rows colors chars-per-pixel */
"30 30 132 2 ",
"   c #000100",
".  c #020905",
"X  c #030D0A",
"o  c #051106",
"O  c #05130B",
"+  c #081609",
"@  c #071A09",
"#  c #081A0A",
"$  c #071910",
"%  c #081C14",
"&  c #0A1F18",
"*  c #0B230E",
"=  c #0C280F",
"-  c #0B2315",
";  c #0D2B11",
":  c #0A251A",
">  c #0C2B1F",
",  c #123515",
"<  c #133D19",
"1  c #0F3426",
"2  c #0F3925",
"3  c #113C28",
"4  c #15451B",
"5  c #164D1D",
"6  c #154925",
"7  c #13422E",
"8  c #1A5522",
"9  c #1C5B24",
"0  c #154631",
"q  c #164C34",
"w  c #185037",
"e  c #1A5833",
"r  c #175139",
"t  c #19573D",
"y  c #1A5A3F",
"u  c #1D6126",
"i  c #1E6428",
"p  c #1F6A29",
"a  c #206628",
"s  c #216C2B",
"d  c #23752D",
"f  c #267A2F",
"g  c #277E31",
"h  c #1D5F43",
"j  c #1D6447",
"k  c #1E6749",
"l  c #1F6A4B",
"z  c #216F4F",
"x  c #21714E",
"c  c #207452",
"v  c #247B57",
"b  c #257F59",
"n  c #2A8736",
"m  c #2A8C37",
"M  c #2B8D38",
"N  c #2F9B3D",
"B  c #319C3E",
"V  c #31A13F",
"C  c #29855E",
"Z  c #33A441",
"A  c #35AA43",
"S  c #36B346",
"D  c #3AB946",
"F  c #38B648",
"G  c #3ABB4A",
"H  c #278761",
"J  c #2B9469",
"K  c #2C9B6D",
"L  c #2FA372",
"P  c #2FA875",
"I  c #31A775",
"U  c #31AA77",
"Y  c #33AD7A",
"T  c #35B17C",
"R  c #3DC74E",
"E  c #3DC84E",
"W  c #3EC752",
"Q  c #3EC851",
"!  c #3EC75A",
"~  c #3EC85B",
"^  c #3CC761",
"/  c #3EC962",
"(  c #3ECA6A",
")  c #3ECB74",
"_  c #3ECC7C",
"`  c #40C654",
"'  c #40C558",
"]  c #40CB7A",
"[  c #36B781",
"{  c #34BB83",
"}  c #38BF85",
"|  c #3ABD87",
" . c #37C185",
".. c #37C186",
"X. c #38C287",
"o. c #3ECC80",
"O. c #3FCD81",
"+. c #3FCD83",
"@. c #3DCE83",
"#. c #3DCD85",
"$. c #3ECC84",
"%. c #3ECE86",
"&. c #3ECD85",
"*. c #39C489",
"=. c #3AC58A",
"-. c #3ECE88",
";. c #3ECE89",
":. c #3DCE8B",
">. c #3AC88C",
",. c #3BC98D",
"<. c #3ECF8C",
"1. c #3CCC8F",
"2. c #3ECF8E",
"3. c #3ECF8C",
"4. c #3DD08C",
"5. c #3ED08F",
"6. c #3ACE90",
"7. c #3CCE90",
"8. c #3DCF91",
"9. c #3ECE90",
"0. c #3FCF91",
"q. c #3FCF92",
"w. c #3ECF94",
"e. c #3ED091",
"r. c #3CD092",
"t. c #3DD193",
"y. c #3ED092",
"u. c #3FD192",
"i. c #3FD193",
"p. c #3FD095",
"a. c #3ED092",
"s. c #40D294",
/* pixels */
"                  X 7 v I X.q.i.=.P b 0 O                   ",
"              - z { i.i.i.i.i.i.i.i.i.q.} c - .             ",
"          X q Y i.i.i.i.i.i.i.i.i.q.i.i.i.i.Y w X           ",
"        X h ..i.i.q.2.4.-.%.o.o.%.-.-.2.i.i.i.X.k O         ",
"      . r X.i.i.2.-._ ( / ~ ~ ~ ~ / ( _ -.2.q.i.X.y .       ",
"      > Y i.i.2.o.( ~ Q R R R Q R R Q ! ( _ -.q.i.T 1       ",
"    . k s.i.2._ / Q R R R R R R R R R R ` / _ 2.i.i.z X     ",
"    O I p.i.%./ Q R R R A M g g m Z R R R Q ( %.i.i.U %     ",
"    $ >.i.i._ ~ R R S s < * @ @ * < p A R R ~ _ i.i.>.:     ",
"    $ i.i.4._ ! E R N ;             o < 8 8 8 e y y y O     ",
"    $ =.i.i._ ~ R R F n 5 = + X .       . . . . . . .       ",
"    O L i.i.-.( Q R Q R S Z B B N m s 4 +                   ",
"    . j i.i.q._ ^ Q R R R R R R R R G S N a #               ",
"      : Y i.w.2.o.( ! Q R E R R R R R R R G N 4 .           ",
"      . q =.i.i.4.-._ ( / / ~ ! ` Q R R R R R F 8 .         ",
"        . t =.i.i.i.p.2.2.-.%.o._ ) ( ~ Q R R R G 5 .       ",
"          . 0 Y 2.i.s.p.i.i.i.i.i.q.2.o.) ~ R R R Z ;       ",
"              % x Y ..>.q.i.i.i.i.i.i.q.2._ ~ Q R R i .     ",
"                  O q v K U Y T T } q.i.i.2.) ! R E B #     ",
"              . .         . O $ > t J X.p.i.o./ Q R G *     ",
"    . 4 4 4 6 q q q 3 o             - K q.q.-./ Q R R *     ",
"    + G R Q / %.w.i.[ l 2 - O O & 1 j [ i.i.%./ Q R R *     ",
"    o V R R ! ) 2.i.i.6.T J H C J Y 2.i.i.2._ ~ R R Z #     ",
"    . a R R Q ^ ] 2.i.i.i.i.i.i.i.i.i.i.-._ / Q R R s o     ",
"      ; A R R Q / ) o.2.i.i.i.i.i.i.2.%.) / Q R R A ,       ",
"      . 8 G R R Q ! / ) _ _ %.%._ _ ) / ! Q R R G 9 .       ",
"        o u D R E R Q ! ! ~ / / ~ ' ! Q R R R G s +         ",
"          o 5 A R R R R R R Q Q Q R R R R R A 8 o           ",
"            . = s S R R R Q R E R R R R F d = .             ",
"                . + 4 f V G R R G Z g 5 @ .                 "
};
