/* XPM */
static char *_2cf6a7a27ed4151f127711ac9a81afe6xJ4uHLbL99siEDJ[] = {
/* columns rows colors chars-per-pixel */
"30 30 214 2 ",
"   c #191919",
".  c #181A19",
"X  c #1A1A18",
"o  c #1B1B19",
"O  c #1B191A",
"+  c gray10",
"@  c #1B1B1B",
"#  c #1B1B1D",
"$  c gray12",
"%  c #1E201F",
"&  c #1F2120",
"*  c gray13",
"=  c #222222",
"-  c #232323",
";  c gray14",
":  c gray15",
">  c gray20",
",  c #373737",
"<  c #393939",
"1  c gray23",
"2  c #414141",
"3  c #444444",
"4  c #4E4766",
"5  c #4F4965",
"6  c #4F4867",
"7  c #4F4B66",
"8  c #4F4D65",
"9  c #4E4E66",
"0  c #4F4869",
"q  c #4F4A68",
"w  c #514867",
"e  c #504A66",
"r  c #504E64",
"t  c #514D66",
"y  c #504C67",
"u  c #504E66",
"i  c #504968",
"p  c #50496A",
"a  c #504D68",
"s  c #5C7A6E",
"d  c #5B7D6D",
"f  c #5D7D6E",
"g  c gray39",
"h  c #656766",
"j  c #686868",
"k  c #6C6C6C",
"l  c #7B7B7B",
"z  c #5F806D",
"x  c #69A774",
"c  c #6BA774",
"v  c #67A872",
"b  c #66A973",
"n  c #69A873",
"m  c #68A973",
"M  c #6AAE71",
"N  c #6BAF72",
"B  c #6AAE73",
"V  c #68A874",
"C  c #6AA875",
"Z  c #69AA74",
"A  c #6CA875",
"S  c #6BAF74",
"D  c #6BAF76",
"F  c #6FAE79",
"G  c #6EAF79",
"H  c #71AD7A",
"J  c #7FFF7F",
"K  c #80FF7E",
"L  c #81FF7F",
"P  c #7EFF80",
"I  c #7FFF81",
"U  c #7FFF82",
"Y  c gray51",
"T  c #909090",
"R  c #939393",
"E  c #979797",
"W  c #9B9B9B",
"Q  c gray61",
"!  c #9D9D9D",
"~  c gray62",
"^  c #9E9EA0",
"/  c #A5A5A5",
"(  c gray65",
")  c #AAAAAA",
"_  c gray67",
"`  c #B4B4B4",
"'  c #B6B6B6",
"]  c #B8B6B7",
"[  c gray",
"{  c #80FC80",
"}  c #81FD81",
"|  c #80FE80",
" . c #81FE80",
".. c #80FE81",
"X. c #81FF81",
"o. c #83FE81",
"O. c #82FF81",
"+. c #81FF82",
"@. c #82FE82",
"#. c #83FE82",
"$. c #82FF82",
"%. c #86FD85",
"&. c #84FE85",
"*. c #87FC87",
"=. c #87FE88",
"-. c #87FE8A",
";. c #88FD88",
":. c #88FD8A",
">. c #8BFD8B",
",. c #89FE8B",
"<. c #8BFD8C",
"1. c #8CFE8C",
"2. c #8FFC8F",
"3. c #8FFC91",
"4. c #93F993",
"5. c #93FC93",
"6. c #92FB94",
"7. c #94FA94",
"8. c #95FB95",
"9. c #96FA97",
"0. c #99F799",
"q. c #9BF59B",
"w. c #9CF49D",
"e. c #99FB98",
"r. c #9AF89A",
"t. c #9AFB9A",
"y. c #9AFC99",
"u. c #9BFA9E",
"i. c #9DFA9F",
"p. c #98FC9C",
"a. c #9EFBA0",
"s. c #A0F8A1",
"d. c #A1F9A2",
"f. c #A4F9A4",
"g. c #A7F9A5",
"h. c #A5FBA4",
"j. c #A6FAA5",
"k. c #A6F9A7",
"l. c #A9F8A9",
"z. c #AAF9AA",
"x. c #AEF8AD",
"c. c #B0F8AF",
"v. c #B0F9B0",
"b. c #B5F8B1",
"n. c #B5F8B5",
"m. c #B7F8B6",
"M. c #B9F3B9",
"N. c #BBF7BB",
"B. c #BCF3BC",
"V. c #B8F9B9",
"C. c #BCF8BC",
"Z. c #C4C6C3",
"A. c #C6C8C5",
"S. c #C8C8C8",
"D. c #C9CBCA",
"F. c #CACACA",
"G. c #CDCDCD",
"H. c #CECECE",
"J. c gray81",
"K. c #CFDBCD",
"L. c gray82",
"P. c LightGray",
"I. c #D3D5D2",
"U. c gray83",
"Y. c #D0DCD2",
"T. c gray87",
"R. c #CCE9CD",
"E. c #CDECCD",
"W. c #C3F5C2",
"Q. c #C5F6C7",
"!. c #C7F7C7",
"~. c #C8F6C8",
"^. c #C8F5CA",
"/. c #CCF5CB",
"(. c #CFF5CE",
"). c #D1F5D1",
"_. c #D2F4D3",
"`. c #D2F5D4",
"'. c #D6F5D5",
"]. c #D7F4D6",
"[. c #DBF3DB",
"{. c #DDF3DE",
"}. c #E0F3DF",
"|. c #E1E1E1",
" X c #E2E2E2",
".X c #E4E4E2",
"XX c #E4E4E4",
"oX c #E7E7E7",
"OX c #E1E8E1",
"+X c #E4E9E3",
"@X c gray91",
"#X c #E9E9E9",
"$X c #EAEAEA",
"%X c gray92",
"&X c gray93",
"*X c #EFEFEF",
"=X c #EBF2EA",
"-X c #EBF2EB",
";X c #EDF2EC",
":X c #ECF3EC",
">X c #ECF2EE",
",X c #EDF2EE",
"<X c #F0F2EF",
"1X c #EDF1F0",
"2X c gray94",
"3X c #F1F1F1",
"4X c #F1F3F0",
"5X c #F2F2F0",
"6X c #F1F1F3",
"7X c #F3F1F2",
"8X c gray95",
"9X c #F3F3F3",
"0X c #F3F1F4",
"qX c #F2F2F4",
/* pixels */
"6 p 6 6 6 6 6 6 6 6 w q 6 6 6 6 6 6 6 6 6 6 6 6 6 6 6 6 6 6 ",
"w s m m m b C x m x m b m m m m m C b m x x x C C m m m f q ",
"6 m I X.X.*.3.e.w.8.>.X.X.X.X.X.X.X.X.>.4.q.q.1.*.X.L X.B u ",
"6 m X.X.5.M.Y.' ) Z.R.l.-.X.X.X.X.-.f.E.A.) ' K.B.8.X.X.B u ",
"6 m X.8.).P.k & o > ~ OXm.*.X.I *.b.+X( , o = h J.).y.X.B u ",
"6 m *.Q.%X^ $ o o o 2 D.>Xf.X.X.i.-XU.3 o o o % R %X~.>.B u ",
"6 C e.-X XY o o o o = [ 8X`.*.X.(.8XJ.: o o o o l T.>Xu.S 8 ",
"6 C v.8X%XW = o o o 2 D.8X>X1.*.>X8XI.3 o o o = R XX8Xm.G u ",
"6 A V.8X8XJ.j : # < E XX8X0X1.>.8X8X%X~ < o : g D.8X8XC.H u ",
"p A c.8X8X*XP.( ~ '  X8X8X>X>.X.>X8X8X.X] ~ ( J.*X8X8Xm.G u ",
"6 x e.>X8X8X8X8X*X8X8X8X8X'.*.X.).8X8X0X8X*X8X8X8X8X>Xa.S u ",
"6 m >.~.8X8X8X8X8X8X8X8X>Xf.X.X.i.1X8X8X8X8X8X8X8X0X/.<.B u ",
"6 m X.8.'.8X8X8X8X8X8X8XN.>.X.X.*.m.<X8X8X8X8X8X8X[.p.X.B u ",
"4 m X.X.6.W.-X8X0X8X}.x.>.X.X.X.X.-.l.{.8X8X8X-XQ.8.X.X.B u ",
"6 m L L X.X.1.s.f.e.>.X.X.X.X.X.X.X.X.>.e.f.s.1.*.X.X.X.B u ",
"6 m X.I X.J X.X.X.X.X.X.X.L X.X.X.X.X.X.X.X.X.I X.X.X.X.B u ",
"6 m X.X.X.X.X.X.X.X.X.X.X.X.X.X.X.X.X.X.X.X.X.X.X.X.X.X.B u ",
"6 m X.X.X.X.X.X.X.X.X.X.X.X.X.X.X.X.X.X.X.X.X.X.X.X.X.X.B u ",
"6 m X.X.X.X.X.X.X.X.X.X.X.X.X.X.X.X.X.X.X.X.X.X.X.X.X.X.B u ",
"6 m X.X.X.X.X.X.X.X.X.X.X.X.X.X.X.X.X.X.X.X.X.X.X.X.X.X.B u ",
"6 m X.X.X.X.X.X.X.X.X.X.X.X.X.X.X.X.X.X.X.X.X.X.X.X.X.X.B u ",
"6 m X.X.X.X.X.X.X.X.X.X.X.X.X.X.X.X.X.X.X.X.X.X.X.X.X.X.B u ",
"6 m X.X.X.X.X.X.X.X.X.X.X.X.X.X.X.X.X.X.X.X.X.X.X.X.X.X.B u ",
"6 m X.X.X.X.X.X.X.X.X.X.X.X.X.X.X.X.X.X.X.X.X.X.X.X.X.X.B u ",
"w m X.X.X.X.X.X.X.X.X.X.X.X.X.X.X.X.X.X.X.X.X.X.I X.I X.B u ",
"6 m X.X.X.X.X.L X.X.X.X.X.X.X.X.X.X.X.X.X.X.X.X.X.L X.X.B a ",
"6 m X.X.X.X.X.X.X.X.X.X.X.X.X.X.X.X.X.X.X.X.X.X.X.X.X.X.B u ",
"w m X.X.X.X.X.X.X.X.X.X.X.X.X.X.X.X.X.X.X.X.X.X.X.X.X.X.B 8 ",
"6 d B B S B B B B B B B B B B B B B B B B B B B B B B B z u ",
"p q u u u u u u u u u u u u u u u u u u u u u u u a u 8 6 q "
};
