/* XPM */
static char * BACK_xpm[] = {
"45 45 407 2",
"  	c #422D05",
". 	c #402C04",
"+ 	c #3F2B03",
"@ 	c #3F2C03",
"# 	c #483209",
"$ 	c #483A0D",
"% 	c #48380C",
"& 	c #48340A",
"* 	c #48360B",
"= 	c #48330A",
"- 	c #483109",
"; 	c #483309",
"> 	c #47340A",
", 	c #352100",
"' 	c #1A1100",
") 	c #241000",
"! 	c #281000",
"~ 	c #442E06",
"{ 	c #472F07",
"] 	c #483B0D",
"^ 	c #3E2B03",
"/ 	c #483F10",
"( 	c #483D0F",
"_ 	c #48350A",
": 	c #48350B",
"< 	c #484008",
"[ 	c #483F0C",
"} 	c #483E0D",
"| 	c #483108",
"1 	c #352200",
"2 	c #412D04",
"3 	c #452E06",
"4 	c #483008",
"5 	c #483C0B",
"6 	c #483F0F",
"7 	c #48390D",
"8 	c #484003",
"9 	c #484002",
"0 	c #483B0C",
"a 	c #403106",
"b 	c #341F00",
"c 	c #1B1200",
"d 	c #422F06",
"e 	c #432E05",
"f 	c #45390C",
"g 	c #483C0E",
"h 	c #483E0F",
"i 	c #483F06",
"j 	c #3B2D03",
"k 	c #372301",
"l 	c #423006",
"m 	c #432D05",
"n 	c #452F06",
"o 	c #48370C",
"p 	c #3F3206",
"q 	c #423409",
"r 	c #453208",
"s 	c #3A2801",
"t 	c #49360B",
"u 	c #44380B",
"v 	c #483A0C",
"w 	c #463309",
"x 	c #473008",
"y 	c #453309",
"z 	c #433006",
"A 	c #432F06",
"B 	c #3D2903",
"C 	c #3C2A02",
"D 	c #473B0D",
"E 	c #47390D",
"F 	c #483B0E",
"G 	c #462F07",
"H 	c #382700",
"I 	c #352300",
"J 	c #382800",
"K 	c #3D2A02",
"L 	c #3A2901",
"M 	c #412C04",
"N 	c #331F00",
"O 	c #311B00",
"P 	c #321C00",
"Q 	c #362400",
"R 	c #372501",
"S 	c #3A2602",
"T 	c #392601",
"U 	c #392501",
"V 	c #3C2703",
"W 	c #402905",
"X 	c #241300",
"Y 	c #1A1200",
"Z 	c #1C1100",
"` 	c #1B1300",
" .	c #191200",
"..	c #211000",
"+.	c #231000",
"@.	c #362E00",
"#.	c #383106",
"$.	c #38310A",
"%.	c #382705",
"&.	c #382504",
"*.	c #3B2504",
"=.	c #392303",
"-.	c #3A2404",
";.	c #382303",
">.	c #342101",
",.	c #332001",
"'.	c #311F00",
").	c #322000",
"!.	c #2E1700",
"~.	c #201000",
"{.	c #2D1800",
"].	c #3C3100",
"^.	c #3C310A",
"/.	c #3C3009",
"(.	c #3C2504",
"_.	c #3C2505",
":.	c #352101",
"<.	c #321F00",
"[.	c #352700",
"}.	c #413900",
"|.	c #1E1200",
"1.	c #311900",
"2.	c #311A00",
"3.	c #321B00",
"4.	c #1F1300",
"5.	c #2F2100",
"6.	c #271300",
"7.	c #453D00",
"8.	c #2E2500",
"9.	c #271700",
"0.	c #2E1A00",
"a.	c #352704",
"b.	c #221A01",
"c.	c #342000",
"d.	c #3E2A03",
"e.	c #3A2701",
"f.	c #3A2702",
"g.	c #372700",
"h.	c #3C2802",
"i.	c #392701",
"j.	c #412C05",
"k.	c #342100",
"l.	c #2C1600",
"m.	c #1B0F00",
"n.	c #423B0B",
"o.	c #291400",
"p.	c #372600",
"q.	c #372500",
"r.	c #3B2802",
"s.	c #382601",
"t.	c #352404",
"u.	c #341E01",
"v.	c #3B2901",
"w.	c #402B03",
"x.	c #46350A",
"y.	c #402C03",
"z.	c #47370B",
"A.	c #402B04",
"B.	c #342200",
"C.	c #150E00",
"D.	c #44360B",
"E.	c #412E05",
"F.	c #402D04",
"G.	c #483E0B",
"H.	c #453409",
"I.	c #362201",
"J.	c #352605",
"K.	c #341F02",
"L.	c #473108",
"M.	c #473208",
"N.	c #48380B",
"O.	c #3E2F05",
"P.	c #423508",
"Q.	c #150D00",
"R.	c #44390D",
"S.	c #452F07",
"T.	c #47350A",
"U.	c #3D2B03",
"V.	c #48390C",
"W.	c #351E03",
"X.	c #331C01",
"Y.	c #3D2803",
"Z.	c #442E05",
"`.	c #433408",
" +	c #442C07",
".+	c #311C00",
"++	c #48370B",
"@+	c #351F03",
"#+	c #341C01",
"$+	c #3F2E04",
"%+	c #150F00",
"&+	c #442D07",
"*+	c #46370B",
"=+	c #463A0C",
"-+	c #484010",
";+	c #483F0E",
">+	c #483F08",
",+	c #2F1B01",
"'+	c #3E2E04",
")+	c #484006",
"!+	c #483A0E",
"~+	c #483808",
"{+	c #484001",
"]+	c #3B2A02",
"^+	c #160E00",
"/+	c #463B0D",
"(+	c #48400A",
"_+	c #483F03",
":+	c #484000",
"<+	c #483F07",
"[+	c #473309",
"}+	c #392800",
"|+	c #331D00",
"1+	c #321C01",
"2+	c #331C00",
"3+	c #3D2B02",
"4+	c #3C3004",
"5+	c #160F00",
"6+	c #483E0A",
"7+	c #48380D",
"8+	c #413307",
"9+	c #341E02",
"0+	c #3F2C04",
"a+	c #3E2C03",
"b+	c #48390B",
"c+	c #3F3005",
"d+	c #412B05",
"e+	c #463208",
"f+	c #483D0D",
"g+	c #463A0D",
"h+	c #463007",
"i+	c #483A0B",
"j+	c #403006",
"k+	c #443609",
"l+	c #362500",
"m+	c #483E0C",
"n+	c #3F2D04",
"o+	c #413106",
"p+	c #45370B",
"q+	c #2B1300",
"r+	c #45350A",
"s+	c #43370A",
"t+	c #2F1700",
"u+	c #352400",
"v+	c #453509",
"w+	c #473209",
"x+	c #432E06",
"y+	c #46360A",
"z+	c #392801",
"A+	c #331E00",
"B+	c #392901",
"C+	c #422D04",
"D+	c #171000",
"E+	c #1D1200",
"F+	c #372400",
"G+	c #251200",
"H+	c #191100",
"I+	c #2B1600",
"J+	c #372101",
"K+	c #382202",
"L+	c #352001",
"M+	c #1A1000",
"N+	c #1C1500",
"O+	c #1F1200",
"P+	c #3A2303",
"Q+	c #392202",
"R+	c #251400",
"S+	c #280F00",
"T+	c #230F00",
"U+	c #170F00",
"V+	c #181000",
"W+	c #1C1400",
"X+	c #433A0D",
"Y+	c #43330A",
"Z+	c #432C06",
"`+	c #412B06",
" @	c #3D2904",
".@	c #382702",
"+@	c #372601",
"@@	c #3C2903",
"#@	c #342500",
"$@	c #312000",
"%@	c #1B1100",
"&@	c #281600",
"*@	c #433B00",
"=@	c #423A0C",
"-@	c #423A0E",
";@	c #422C06",
">@	c #392702",
",@	c #3E2A04",
"'@	c #402B05",
")@	c #2B1700",
"!@	c #261000",
"~@	c #251000",
"{@	c #362F00",
"]@	c #423A03",
"^@	c #422E08",
"/@	c #311D00",
"(@	c #301900",
"_@	c #321D00",
":@	c #321E00",
"<@	c #291700",
"[@	c #281900",
"}@	c #2E1800",
"|@	c #3D3600",
"1@	c #312800",
"2@	c #251300",
"3@	c #301A00",
"4@	c #2C1E00",
"5@	c #201200",
"6@	c #453B00",
"7@	c #403307",
"8@	c #3D2A03",
"9@	c #443007",
"0@	c #3D360B",
"a@	c #241400",
"b@	c #2E1900",
"c@	c #2B1601",
"d@	c #3F3306",
"e@	c #47390C",
"f@	c #453107",
"g@	c #3D2D07",
"h@	c #483C0D",
"i@	c #2F1C00",
"j@	c #291100",
"k@	c #382501",
"l@	c #443107",
"m@	c #442D05",
"n@	c #46380C",
"o@	c #3D320A",
"p@	c #47380C",
"q@	c #443509",
"r@	c #402E05",
"s@	c #322100",
"t@	c #270E00",
"u@	c #221300",
"v@	c #291600",
"w@	c #3D2906",
"x@	c #301800",
"y@	c #432D06",
"z@	c #483D0E",
"A@	c #3D2603",
"B@	c #332300",
"C@	c #352D00",
"D@	c #453C02",
"E@	c #453C05",
"F@	c #463C0E",
"G@	c #463B0E",
"H@	c #443209",
"I@	c #443008",
"J@	c #484007",
"K@	c #433308",
"L@	c #3E2906",
"M@	c #412F05",
"N@	c #483E10",
"O@	c #3B2702",
"P@	c #463C00",
"Q@	c #392900",
"R@	c #46360B",
"S@	c #482F08",
"T@	c #422C04",
"U@	c #423509",
"V@	c #48360A",
"W@	c #484004",
"X@	c #342401",
"Y@	c #42360A",
"Z@	c #483C06",
"`@	c #372401",
" #	c #322200",
".#	c #433609",
"+#	c #484110",
"@#	c #43390B",
"##	c #3E2704",
"$#	c #332401",
"%#	c #3B2C02",
"&#	c #413006",
"*#	c #443308",
"=#	c #483B0B",
"-#	c #422F05",
";#	c #382603",
">#	c #352600",
",#	c #201400",
"'#	c #281700",
")#	c #271500",
"!#	c #271600",
"~#	c #1E1500",
"{#	c #463108",
"]#	c #2F1A00",
"^#	c #271000",
"/#	c #3F3106",
"(#	c #463409",
"_#	c #2A1600",
":#	c #453007",
"<#	c #423106",
"[#	c #191000",
"}#	c #2E1B00",
"|#	c #332000",
"1#	c #281500",
"2#	c #2F1900",
"3#	c #2F1800",
"4#	c #321B01",
"5#	c #1E1600",
"6#	c #1D1500",
"7#	c #2D1700",
"8#	c #311B01",
"9#	c #261400",
"0#	c #1A1300",
"  . + @ # $ % & * = - - ; > + , ' ) ! ! ! ! ! ! ! ! ! ! ! ! ! ! ! ! ! ! ! ! ! ! ! ! ! ! ! ",
"~ { ] ^ / ( $ _ : < [ } | # ^ 1 ' ) ! ! ! ! ! ! ! ! ! ! ! ! ! ! ! ! ! ! ! ! ! ! ! ! ! ! ! ",
"2 3 4   5 6 7 = % 8 9 0 a . . b c ) ! ! ! ! ! ! ! ! ! ! ! ! ! ! ! ! ! ! ! ! ! ! ! ! ! ! ! ",
"^ d e f % & ; - g h i *   j   k ' ) ! ! ! ! ! ! ! ! ! ! ! ! ! ! ! ! ! ! ! ! ! ! ! ! ! ! ! ",
"^ l m n % * o - | 7 * p q r   s c ) ! ! ! ! ! ! ! ! ! ! ! ! ! ! ! ! ! ! ! ! ! ! ! ! ! ! ! ",
"  t . { u v 5 w x y z A 3 { . B c ) ! ! ! ! ! ! ! ! ! ! ! ! ! ! ! ! ! ! ! ! ! ! ! ! ! ! ! ",
"~ . C 4 { D E { F x G G { ] ^ H c ) ! ! ! ! ! ! ! ! ! ! ! ! ! ! ! ! ! ! ! ! ! ! ! ! ! ! ! ",
", I J K L   M . + .     . K K 1 ' ) ! ! ! ! ! ! ! ! ! ! ! ! ! ! ! ! ! ! ! ! ! ! ! ! ! ! ! ",
"1 N O P Q R S Q Q Q T U V W O X Y ) ! ! ! ! ! ! ! ! ! ! ! ! ! ! ! ! ! ! ! ! ! ! ! ! ! ! ! ",
"Z Z Z Z Z Z Z Z Z Z Z Z Z Z Z `  .) ! ! ! ! ! ! ! ! ! ! ! ! ! ! ! ! ! ! ! ! ! ! ! ! ! ! ! ",
"..............+.@.#.$.%.&.&.&.&.&.*.=.-.;.>.,.'.).!.~.{.].^./.(.(.(.(.(.(._.,.:.=.-.'.'.<.",
"! ! ! ! ! ! ! [.}.|.P P O 1.2.3.P 3.2.1.2.O 3.2.4.5.6.7.8.9.2.2.3.P O 1.2.3.O O 2.1.2.0.4.",
"! ! ! ! ! ! ! a.b.c.H H d.e.f.g.J H h.i.B j.H k.I l.m.n.o.p.q.p.j.  p.p.p.g.  . r.s.p.N O ",
"! ! ! ! ! ! ! t.u.c.v.w.. x.M . y.. M z.5 2 M ~ A.B.C.D.N B.M M E.E.M 2 2 . F.G.H.{ 3 . I.",
"! ! ! ! ! ! ! J.K.M K ] z.L.x | - | m M.N.O.= P.e p.Q.R.1   S.T.] 4 L.x x | U.] ~ D V.^ v.",
"! ! ! ! ! ! ! W.X.Y.@ + . Z.% & : & % 7 * ; # `.A.B.C. +.+2   M + x 7 - # V.# = % 7 ++. I.",
"! ! ! ! ! ! ! @+#+s 3 n o $+/ g $ % 7 8 < $ S.G C N %+&+c.@ x *+S.=+-+++= 7 ;+< >+: {   q.",
"! ! ! ! ! ! ! ,+3.s G G 4 '+)+!+F 7 ~+{+9 F ]+M e.Q ^+i.1 + 4 { 3 /+(+: & $ _+:+<+[+}+e |+",
"! ! ! ! ! ! ! 1+2+3+z d . V.% : o * F $ 5 o   4+. u.5+B I . z.. z 7 7 # # V./ 6+7+| 8+L M ",
"! ! ! ! ! ! ! 9+X.. 0+a+M 4 F b+& # 4 F % c+'+  e }+C.d+I   e+2 + = V.f+| # # : u g+e ^ 3+",
"! ! ! ! ! ! ! 0.O . F.| . h+f i+_ j+3 =+k+. + m m , 5+l+I   [+G . c+7 m+- l n+o+p+G ~ + ^ ",
"! ! ! ! ! ! ! q+1.C . M K x { r+s+~ *+{ G ~ ~ x.^ Q 5+t+u+. L C ~ ~ v+w+w+y x+~ G x y+  z+",
"! ! ! ! ! ! ! ) {.}+N A+J z+B+C+~   ^ C . m ~ B+z+.+D+E+I F+l+1 J J . 3+K M ~   + K . J g.",
"! ! ! ! ! ! ! G+H+I+A+A+P 1.N J+b N N N K+L+L+K+!.M+` N+O+O 1.3.|+A+N P+N N N N Q+P+K+A+R+",
"S+S+S+S+S+S+S+T+N+U+D+D+D+V+V+V+V+V+U+U+U+U+U+U+U+W+U+V+Y U+U+U+D+V+D+V+V+V+V+V+V+V+U+U+D+",
"X+Y+Z+Z+Z+Z+Z+Z+`+ @.@+@@@#@#@$@%@&@*@=@-@;@;@;@;@;@;@;@>@,@'@ @#@#@#@)@V+!@!@!@!@~@{@]@^@",
"/@.+(@(@/@N _@2.(@O :@N P 1.<@[@}@|@1@2@2.:@:@.+(@3@_@N _@2.(@O A+N X 4@5@! ! ! ! I+6@A.7@",
"J z+C 8@M J }+L v.+ 9@m }+i.s.(@%@0@a@l+L J e . L L }+J   0+K + }+N I.b@V+! ! ! ! c@d@* * ",
"H M ^ e@M m   @ ^ z.<+f@G x + 1 ' g@1.Q v.  e y+^ + 2 m C+G.h@G 3 3 z+i@V+! ! ! ! j@k@N.++",
"@ x.9@l@4 * _ # 4 m@% . * n@C+p.c o@:@2 M p@e@3 - # & * M & L.q@= r@^ s@V+S+t@t@t@t@u@v@v@",
"3+M S.m % & # | g v _ & o g+m c.c w@x@y@  ^ ^ x z@| # & * ] z@7 & '+A@B@V+C@D@E@F@G@D.H@I@",
". ~ * ~ F -+% # $ J@< b+K@{ 2 k.c L@2.M 3 M@- r -+g & o N@9 (+7 2 M O@$@V+P@Q@R@S@% T@U@L ",
"e G x O.6+h@V.& V@W@{+f+M L + c.c X@:@K { S.n Y@i = % F Z@8 W@* J   `@ #V+.#9@>+p@| +#4 3 ",
"~ z.^ w+7 F 7 _ : 7 f+F { @#v.##' $#A+C p@m ~ V.* & % F g N.* * r %#2 }@V+I.m 9@^ 3+&#3 A+",
". *#M G V.V.=#; | * # -#*#{ M 3+c ;#:@. H.. . & 7 6+_ o 4 * o H.    M >#V+,#'#&@)#)#!#'#~#",
"U.x ~ 3 8+: ++~ {#s+c+'+  {#m Q ' 5.:@~   x 3+  F h@# a+F.u /+m @ ^ . ]#V+! ! ! ! ^#! ! ! ",
"^ v.}+G   /#&#3 (#~ . . m (#  Q ' _#A+  L C K m h+:#<#0+M@3 G ~ r@F.^ i@V+! ! ! ! ! ! ! ! ",
"N k.Q l+J     C L 3+    M 3+l+'.[#D+}#I k.|#H p.L y.+ C+. C @ .   Q@Q 1#V+! ! ! ! ! ! ! ! ",
"(@2#3#3#3@3@2.3@3@3@3@3@2.4#3#' 5#6#H+7#3#(@(@2#3@4#3@3@3@3@4#8#3@3@9#Y Y ! ! ! ! ! ! ! ! ",
"D+D+D+D+D+D+D+D+D+D+D+D+D+D+D+ .V+D+0#D+D+D+D+D+D+D+D+D+D+D+D+D+D+D+D+` V+! ! ! ! ! ! ! ! ",
"! ! ! ! ! ! ! ! ! ! ! ! ! ! ! ! ! ! ! ! ! ! ! ! ! ! ! ! ! ! ! ! ! ! ! ! ! ! ! ! ! ! ! ! ! ",
"! ! ! ! ! ! ! ! ! ! ! ! ! ! ! ! ! ! ! ! ! ! ! ! ! ! ! ! ! ! ! ! ! ! ! ! ! ! ! ! ! ! ! ! ! ",
"! ! ! ! ! ! ! ! ! ! ! ! ! ! ! ! ! ! ! ! ! ! ! ! ! ! ! ! ! ! ! ! ! ! ! ! ! ! ! ! ! ! ! ! ! ",
"! ! ! ! ! ! ! ! ! ! ! ! ! ! ! ! ! ! ! ! ! ! ! ! ! ! ! ! ! ! ! ! ! ! ! ! ! ! ! ! ! ! ! ! ! ",
"! ! ! ! ! ! ! ! ! ! ! ! ! ! ! ! ! ! ! ! ! ! ! ! ! ! ! ! ! ! ! ! ! ! ! ! ! ! ! ! ! ! ! ! ! "};
