/* XPM */
static char * Exit_xpm[] = {
"45 45 108 2",
"  	c #8F8E8D",
". 	c #6D6B6A",
"+ 	c #6E6C6B",
"@ 	c #1E0E04",
"# 	c #200F05",
"$ 	c #241206",
"% 	c #231106",
"& 	c #1F0E04",
"* 	c #190B02",
"= 	c #1F0F04",
"- 	c #6F6C6B",
"; 	c #251207",
"> 	c #281408",
", 	c #2C170A",
"' 	c #2A1609",
") 	c #261308",
"! 	c #1A0C02",
"~ 	c #281509",
"{ 	c #1C0D03",
"] 	c #201005",
"^ 	c #291509",
"/ 	c #2B170A",
"( 	c #221006",
"_ 	c #231107",
": 	c #291508",
"< 	c #1C0D02",
"[ 	c #221105",
"} 	c #241207",
"| 	c #6D6B6B",
"1 	c #1B0D02",
"2 	c #180B01",
"3 	c #190C02",
"4 	c #180B02",
"5 	c #170A01",
"6 	c #180A01",
"7 	c #1D0D04",
"8 	c #211005",
"9 	c #0A4164",
"0 	c #404040",
"a 	c #05263B",
"b 	c #0673B6",
"c 	c #1381C2",
"d 	c #0B7CBC",
"e 	c #0F7ABE",
"f 	c #2B160A",
"g 	c #281409",
"h 	c #0877BB",
"i 	c #271408",
"j 	c #0F78BC",
"k 	c #161616",
"l 	c #030303",
"m 	c #000000",
"n 	c #010101",
"o 	c #070707",
"p 	c #0D77BA",
"q 	c #060606",
"r 	c #090909",
"s 	c #2A1509",
"t 	c #0F0F0F",
"u 	c #055888",
"v 	c #0C7CC1",
"w 	c #101010",
"x 	c #080808",
"y 	c #414141",
"z 	c #040404",
"A 	c #1F0F05",
"B 	c #231206",
"C 	c #424242",
"D 	c #0B0B0B",
"E 	c #050505",
"F 	c #1B0C03",
"G 	c #251308",
"H 	c #383838",
"I 	c #3F3F3F",
"J 	c #200F04",
"K 	c #211006",
"L 	c #111111",
"M 	c #121212",
"N 	c #1D0D03",
"O 	c #0A0A0A",
"P 	c #141414",
"Q 	c #221107",
"R 	c #211004",
"S 	c #2B1609",
"T 	c #2F2F2F",
"U 	c #0C0C0C",
"V 	c #0D0D0D",
"W 	c #171717",
"X 	c #292929",
"Y 	c #251208",
"Z 	c #181818",
"` 	c #0E0E0E",
" .	c #202020",
"..	c #241107",
"+.	c #020202",
"@.	c #1D1D1D",
"#.	c #1C1C1C",
"$.	c #1B0C02",
"%.	c #131313",
"&.	c #1B0D03",
"*.	c #251306",
"=.	c #151515",
"-.	c #261407",
";.	c #191919",
">.	c #261307",
",.	c #0A76BA",
"'.	c #1F0E05",
").	c #1D0E04",
"  . . . . . . . . . . . . . . . . . . . . . . . . . . . . . . . . . . . . . . . . . . .   ",
"+ @ # $ $ $ $ $ $ % & @ @ @ * = $ $ $ $ $ $ $ $ $ $ $ $ $ $ $ $ $ $ $ $ $ $ $ $ $ $ $ = . ",
"- ; > , , , , , , ' ) ) ) ; ! $ , , , , , , , , , , , , , , , , , , , , , , , , , , , $ . ",
"- ~ , , , , , , , , , , , ' { $ , , , , , , , , , , , , , , , , , , , , , , , , , , , $ . ",
"- ~ , , , , , , , , , , , ' { $ , , , , , , , , , , , , , , , , , , , , , , , , , , > ] . ",
"- ) ^ ^ ^ ^ ^ / , , , , , ' { $ , , , , , , , , , , , , , , , , , , , ^ ^ ^ ^ ^ ^ ~ ; @ . ",
"- ( ( ( ( ( _ : ' ' ' ' ' : < [ ' ' ' ' ' ' ' ' ' ' ' ' ' ' ' ' ' ' ' } ( ( ( ( ( ( ( @ . ",
"| * * * * * ! 1 < < < < < 1 2 3 < < < < < < < < < < < < < < < < < < < ! * * * * * * * 4 . ",
". 5 5 5 5 5 5 5 5 5 5 5 5 5 5 5 5 5 5 5 6 7 @ @ @ @ @ @ @ 8 $ $ $ $ $ $ $ $ $ $ [ @ @ @ + ",
". 5 5 5 5 5 5 5 5 5 5 5 5 5 9 0 0 9 a b c d d d d d 0 0 e 9 9 , , , , , , , , f g _ _ _ - ",
". 5 5 5 5 5 5 5 5 5 5 5 9 9 9 0 9 9 a h c d d d d d 0 a 9 9 9 9 , , , , , , , i _ _ _ _ - ",
". 5 5 5 5 5 5 5 5 5 5 5 j 9 0 0 k l m n m m m m o 0 0 a p j j j , , , , , f i } _ _ _ _ - ",
". 5 5 5 5 5 5 5 5 5 5 5 a 0 0 0 0 q m m m m m m r 0 0 0 a a a a , , , s ^ g } _ _ _ _ _ - ",
". 5 5 5 5 5 5 5 5 5 5 5 p 0 0 0 t m m m m m m m r 0 0 o n u v v ' ' ' } ( ( ( ( ( ( ( ( - ",
". 5 5 5 5 5 5 5 5 5 5 5 j 0 0 0 w x r r r r r x w y 0 r m z 9 9 { { { ! ! ! ! ! ! ! ! ! | ",
"+ @ @ @ * ! @ @ @ A B $ q 0 y 0 0 y C C C C C y 0 C 0 D m n E E { 5 5 5 5 5 5 F @ @ @ F . ",
"- _ _ _ F @ G G G i , , n y H I 0 y C C C C C y 0 0 0 D m m n n J 5 5 5 5 5 5 7 K _ _ # | ",
"- _ _ _ F 8 , , , , , , m H H 0 L x r r r r r x M 0 0 D m m m m N 5 5 5 5 5 5 5 { _ _ _ - ",
"- _ _ _ F 8 , , , , , , m H H H r m m m m m m m O H 0 D m m m m { 5 5 5 5 5 5 5 4 { K _ - ",
"- _ _ _ F 8 , , , , , , m H H H P O D D D D D O P H H D m m m m { 5 5 5 5 5 5 5 * { K K + ",
"- Q Q Q F R S S S S S S m H H T H H H H H H H H H H H D m m m m { 5 5 5 5 5 5 5 F Q Q @ . ",
"| ! ! ! 2 3 N N N N N N m H T T H H H H H H H H H H T D m m m m 2 5 5 5 5 5 5 5 2 ! ! * . ",
". 5 5 5 5 5 5 5 5 5 5 5 m T T T P O D D D D D O P H T D m m m m 5 5 5 5 5 5 5 5 5 5 5 5 . ",
". 5 5 5 5 5 5 5 5 5 5 5 m T T T O m m m m m m m O T T U m m m m N N N N N N N N N N N { | ",
". 5 5 5 5 5 5 5 5 5 5 5 m T T T k U V V V V V U W T T V m m m m S S S S S S S S S S S i - ",
". 5 5 5 5 5 5 5 5 5 5 5 m T X T T T T T T T T T T T T V m m m m , , , , , , , , , , g Y - ",
". 5 5 5 5 5 5 5 5 5 5 5 m X X X X X X X X X X X X X X V m m m m , , , , , , , , , , ) _ - ",
". 5 5 5 5 5 5 5 5 5 5 5 m X X X Z U V V V V V U Z X X ` m m m m , , , , , , , , , / ) _ - ",
". 5 5 5 5 5 5 5 5 5 5 5 n X  .X D m m m m m m m U X  .t m m n n , , , , , , , g G G .._ - ",
". 5 5 5 5 5 5 5 5 5 5 5 +. . . .@.w w w w w w w #. . .w m n z z $ $ $ $ $ $ $ ] @ @ @ @ + ",
"| ! ! ! ! ! ! ! ! * 5 $.9  . . . . .X X X X X X X  . .%.m n u u { &.! ! ! ! ! ! ! ! ! * . ",
"- ( ( ( ( ( ( ( ( # 5 *.9  . . . . . . . . . . . . . .=.n 9 9 9 ' > ( ( ( ( ( ( ( ( ( @ . ",
"- _ _ _ _ _ _ _ _ # 5 -.9  .V  . .Z L L L L L L ;. . .D z 9 9 9 , f ^ ^ ^ ^ ^ ^ ^ ^ ^ [ . ",
"- _ _ _ _ _ _ _ _ # 5 -.9 V a q x n m m m m m m n O o E a a a a , , , , , , , , , , , $ . ",
"- _ _ _ _ _ _ _ _ # 5 >.9 a a j ,.a a a a ,.9 9 9 9 u u u u a a , , , , , , , , , , , $ . ",
"- _ _ _ _ _ _ _ _ # 5 ( ) a j ,.a a a a ,.9 9 9 9 u u u u a , , , , , , , , , , , , , $ . ",
"+ @ @ @ @ @ @ @ @ { 5 { @ @ @ @ @ @ @ ] $ $ $ $ $ $ $ $ $ $ $ $ $ $ $ $ $ $ $ $ $ $ $ = . ",
". 4 * * * * * * * * * * * * * * * 5 5 5 5 5 5 5 5 5 6 * * * * * * * 5 5 5 5 5 5 5 5 5 5 . ",
". @ ( ( ( ( ( ( ( ( ( ( ( ( ( ( # 6 5 5 5 5 5 5 5 5 F ( ( ( ( ( ( '.5 5 5 5 5 5 5 5 5 5 . ",
". @ _ _ _ _ _ _ _ _ _ _ _ _ _ _ K 6 5 5 5 5 5 5 5 5 * N N N N N N F 5 5 5 5 5 5 5 5 5 5 . ",
". @ _ _ _ _ _ _ _ _ _ _ _ _ _ _ K 6 5 5 5 5 5 5 5 5 5 5 5 5 5 5 5 5 5 5 5 5 5 5 5 5 5 5 . ",
". @ _ _ _ _ _ _ _ _ _ _ _ _ _ _ K 6 5 5 5 5 5 5 5 5 5 5 5 5 5 5 5 5 5 5 5 5 5 5 5 5 5 5 . ",
". @ _ _ _ _ _ _ _ _ _ _ _ _ _ _ K 6 ).# A * 5 5 5 5 5 5 5 5 5 5 5 5 5 5 5 * A F 5 5 5 5 . ",
". &.@ @ @ @ @ @ @ @ @ @ @ @ @ @ 7 5 { @ @ * 5 5 5 5 5 5 5 5 5 5 5 5 5 5 5 4 @ ! 5 5 5 5 . ",
"  . . . . . . . . . . . . . . . . . . . . . . . . . . . . . . . . . . . . . . . . . . .   "};
