/* XPM */
static char * tste_xpm[] = {
"45 45 487 2",
"  	c #1E0E04",
". 	c #200F05",
"+ 	c #241206",
"@ 	c #231106",
"# 	c #1F0E04",
"$ 	c #190B02",
"% 	c #1F0F04",
"& 	c #1A0B01",
"* 	c #281000",
"= 	c #251207",
"- 	c #281408",
"; 	c #2C170A",
"> 	c #2B170A",
", 	c #21110F",
"' 	c #17287F",
") 	c #0F35A7",
"! 	c #133EC3",
"~ 	c #1642CA",
"{ 	c #1544D1",
"] 	c #1139B1",
"^ 	c #1440C5",
"/ 	c #123DBE",
"( 	c #122F98",
"_ 	c #1C1845",
": 	c #291509",
"< 	c #190B04",
"[ 	c #180A04",
"} 	c #1E0E05",
"| 	c #281509",
"1 	c #221428",
"2 	c #112F95",
"3 	c #1545D4",
"4 	c #1749E0",
"5 	c #483931",
"6 	c #0A2885",
"7 	c #123CBB",
"8 	c #1749DF",
"9 	c #113BB8",
"0 	c #162679",
"a 	c #251307",
"b 	c #190C12",
"c 	c #211006",
"d 	c #1F0F05",
"e 	c #11319D",
"f 	c #A68786",
"g 	c #7B6789",
"h 	c #0D319E",
"i 	c #133EC2",
"j 	c #191C59",
"k 	c #2A1609",
"l 	c #201010",
"m 	c #041350",
"n 	c #011558",
"o 	c #201005",
"p 	c #261308",
"q 	c #251308",
"r 	c #152373",
"s 	c #9D818C",
"t 	c #E1B593",
"u 	c #123CBD",
"v 	c #1543CF",
"w 	c #0D329F",
"x 	c #1647DB",
"y 	c #113099",
"z 	c #140B21",
"A 	c #011963",
"B 	c #011C6D",
"C 	c #011455",
"D 	c #221006",
"E 	c #231107",
"F 	c #291508",
"G 	c #1C153B",
"H 	c #1137AC",
"I 	c #8E758B",
"J 	c #FFCDA7",
"K 	c #9E8081",
"L 	c #1647DA",
"M 	c #123EC1",
"N 	c #123DBF",
"O 	c #8A9DEE",
"P 	c #7488E9",
"Q 	c #123BBA",
"R 	c #02175C",
"S 	c #000D40",
"T 	c #241207",
"U 	c #1A0C02",
"V 	c #1B0D02",
"W 	c #1C0D02",
"X 	c #0E2780",
"Y 	c #1646D7",
"Z 	c #8B7391",
"` 	c #F5C5A0",
" .	c #2F3FA8",
"..	c #1135A3",
"+.	c #506BE4",
"@.	c #C6D3FB",
"#.	c #B3C1F6",
"$.	c #3854C8",
"%.	c #011452",
"&.	c #3C2616",
"*.	c #180B02",
"=.	c #170A01",
"-.	c #160901",
";.	c #10080B",
">.	c #0D2476",
",.	c #0E33A5",
"'.	c #1646D8",
").	c #6A5D9C",
"!.	c #D9AE8D",
"~.	c #B99580",
"{.	c #494BA5",
"].	c #4D69E4",
"^.	c #BFCCF9",
"/.	c #B8C5F8",
"(.	c #1A43C5",
"_.	c #2E1F36",
":.	c #211005",
"<.	c #221105",
"[.	c #200E03",
"}.	c #0F0F36",
"|.	c #0F35A9",
"1.	c #1643CC",
"2.	c #3357E2",
"3.	c #B3C1F7",
"4.	c #7C90EB",
"5.	c #123DC0",
"6.	c #1D0E11",
"7.	c #2B160A",
"8.	c #281409",
"9.	c #241106",
"0.	c #0D1445",
"a.	c #1442CD",
"b.	c #113BBB",
"c.	c #4050AD",
"d.	c #1139B4",
"e.	c #1748DE",
"f.	c #1A4BE0",
"g.	c #3258E2",
"h.	c #0C2377",
"i.	c #271408",
"j.	c #110601",
"k.	c #1441CA",
"l.	c #213DAD",
"m.	c #E1E1E1",
"n.	c #FFFFFF",
"o.	c #EDEDED",
"p.	c #797C9D",
"q.	c #1647D9",
"r.	c #123AB6",
"s.	c #1D1124",
"t.	c #251406",
"u.	c #321F00",
"v.	c #160A01",
"w.	c #0D2C8F",
"x.	c #A6A7B2",
"y.	c #F8F8F8",
"z.	c #64688E",
"A.	c #1647DC",
"B.	c #113BBA",
"C.	c #133FC3",
"D.	c #646676",
"E.	c #2A1509",
"F.	c #251306",
"G.	c #1F1300",
"H.	c #10070C",
"I.	c #D7D7D7",
"J.	c #A7A7A7",
"K.	c #09267F",
"L.	c #0C2F98",
"M.	c #0D32A0",
"N.	c #868686",
"O.	c #251305",
"P.	c #311B00",
"Q.	c #0D267D",
"R.	c #1039B4",
"S.	c #102E93",
"T.	c #0E2478",
"U.	c #0E2270",
"V.	c #112168",
"W.	c #0F2478",
"X.	c #0A2377",
"Y.	c #0B2D92",
"Z.	c #1442CC",
"`.	c #DBDBDB",
" +	c #C2C2C2",
".+	c #575757",
"++	c #C3C3C3",
"@+	c #646464",
"#+	c #757575",
"$+	c #1C0D03",
"%+	c #221402",
"&+	c #362201",
"*+	c #1C0D04",
"=+	c #122270",
"-+	c #1645D6",
";+	c #AAAAB1",
">+	c #ECECEC",
",+	c #A4A4A4",
"'+	c #878686",
")+	c #1B0C03",
"!+	c #201201",
"~+	c #3B2901",
"{+	c #201006",
"]+	c #10319B",
"^+	c #7F6A84",
"/+	c #D2A989",
"(+	c #C9A183",
"_+	c #B3A093",
":+	c #DADADA",
"<+	c #EEEEEE",
"[+	c #D8D8D8",
"}+	c #5E5E5E",
"|+	c #878787",
"1+	c #200F04",
"2+	c #1D0D04",
"3+	c #112E92",
"4+	c #685B98",
"5+	c #FAC9A3",
"6+	c #E0B492",
"7+	c #B9A08F",
"8+	c #BCAA9F",
"9+	c #BFADA1",
"0+	c #BA967C",
"a+	c #C09A7D",
"b+	c #231A14",
"c+	c #474747",
"d+	c #454242",
"e+	c #241107",
"f+	c #1D0D03",
"g+	c #281707",
"h+	c #372500",
"i+	c #1C1843",
"j+	c #8A7391",
"k+	c #DDB190",
"l+	c #291C13",
"m+	c #291707",
"n+	c #331D00",
"o+	c #11329F",
"p+	c #123DBD",
"q+	c #133FC5",
"r+	c #504E9F",
"s+	c #F7C7A2",
"t+	c #F6C6A1",
"u+	c #7D634F",
"v+	c #261208",
"w+	c #271308",
"x+	c #241504",
"y+	c #412C04",
"z+	c #221107",
"A+	c #211004",
"B+	c #1544D3",
"C+	c #1645D4",
"D+	c #1035A8",
"E+	c #192674",
"F+	c #1C0D06",
"G+	c #0A1244",
"H+	c #786485",
"I+	c #E7B997",
"J+	c #F4C4A0",
"K+	c #B08D72",
"L+	c #D0A787",
"M+	c #FBCAA4",
"N+	c #C49D7F",
"O+	c #4D3A2D",
"P+	c #2B1609",
"Q+	c #3D2B02",
"R+	c #180B01",
"S+	c #190C02",
"T+	c #131440",
"U+	c #0F36AA",
"V+	c #111E65",
"W+	c #150802",
"X+	c #1C0C03",
"Y+	c #0E1F69",
"Z+	c #1543D0",
"`+	c #1438AD",
" @	c #5E57A0",
".@	c #1037AF",
"+@	c #836F91",
"@@	c #B7937C",
"#@	c #9F7F66",
"$@	c #2A2019",
"%@	c #775E4C",
"&@	c #251911",
"*@	c #3E2B03",
"=@	c #0F0D2A",
"-@	c #0F1038",
";@	c #0C1E68",
">@	c #1544D2",
",@	c #7D6781",
"'@	c #F0C19D",
")@	c #E6B996",
"!@	c #1C3CB6",
"~@	c #C29B80",
"{@	c #B99478",
"]@	c #150901",
"^@	c #211302",
"/@	c #392801",
"(@	c #100708",
"_@	c #1441C9",
":@	c #917683",
"<@	c #F9C8A3",
"[@	c #655991",
"}@	c #BF9A83",
"|@	c #FECDA7",
"1@	c #654F3E",
"2@	c #201202",
"3@	c #372700",
"4@	c #090F3B",
"5@	c #725B53",
"6@	c #F8C8A3",
"7@	c #F8C7A2",
"8@	c #685880",
"9@	c #1A37A7",
"0@	c #FAC9A4",
"a@	c #A18168",
"b@	c #251400",
"c@	c #120701",
"d@	c #E2B594",
"e@	c #B79276",
"f@	c #0E0607",
"g@	c #8A728C",
"h@	c #FFDABF",
"i@	c #BCA799",
"j@	c #5D5C5C",
"k@	c #4F4E4E",
"l@	c #5E5C5C",
"m@	c #5B5958",
"n@	c #251208",
"o@	c #221106",
"p@	c #171000",
"q@	c #7E6350",
"r@	c #FCCAA5",
"s@	c #49392C",
"t@	c #BC977B",
"u@	c #FFE2CE",
"v@	c #BDB1AA",
"w@	c #8E8E8E",
"x@	c #A5A5A5",
"y@	c #9D9D9D",
"z@	c #636262",
"A@	c #291B06",
"B@	c #422E08",
"C@	c #BE987B",
"D@	c #D9AE8E",
"E@	c #130801",
"F@	c #0F35A8",
"G@	c #DBAF8F",
"H@	c #FFE0CB",
"I@	c #BCADA3",
"J@	c #ADADAD",
"K@	c #626262",
"L@	c #7A7A7A",
"M@	c #747474",
"N@	c #403307",
"O@	c #525150",
"P@	c #A2A2A2",
"Q@	c #BA967A",
"R@	c #E1B493",
"S@	c #9B7C65",
"T@	c #4B4949",
"U@	c #DBB08F",
"V@	c #FFD4B5",
"W@	c #BC9E89",
"X@	c #8A8A8A",
"Y@	c #787878",
"Z@	c #585554",
"`@	c #2B1A08",
" #	c #48360B",
".#	c #140801",
"+#	c #C8C8C8",
"@#	c #FCFCFC",
"##	c #E2E2E2",
"$#	c #D1D1D1",
"%#	c #D4D4D4",
"&#	c #B2B2B2",
"*#	c #201B19",
"=#	c #1038B0",
"-#	c #B8937B",
";#	c #FCCBA5",
">#	c #6D5849",
",#	c #4B4A4A",
"'#	c #686868",
")#	c #8D8D8D",
"!#	c #4C4948",
"~#	c #271905",
"{#	c #48370B",
"]#	c #2D2B2A",
"^#	c #C0C0C0",
"/#	c #C5C5C5",
"(#	c #CECECE",
"_#	c #E3E3E3",
":#	c #C7C7C7",
"<#	c #1340C8",
"[#	c #5E5598",
"}#	c #FDCBA6",
"|#	c #A48369",
"1#	c #1A0C03",
"2#	c #1B0D03",
"3#	c #1A0C01",
"4#	c #291600",
"5#	c #868585",
"6#	c #F6F6F6",
"7#	c #808080",
"8#	c #150903",
"9#	c #1748DC",
"0#	c #0C2E95",
"a#	c #59484C",
"b#	c #3C3140",
"c#	c #261307",
"d#	c #443008",
"e#	c #28211F",
"f#	c #ABABAB",
"g#	c #979797",
"h#	c #403F3F",
"i#	c #4A4745",
"j#	c #181E5F",
"k#	c #152C8B",
"l#	c #10113D",
"m#	c #011557",
"n#	c #211602",
"o#	c #3A2901",
"p#	c #132F94",
"q#	c #0B1349",
"r#	c #01175F",
"s#	c #231402",
"t#	c #452E06",
"u#	c #1039B3",
"v#	c #08134E",
"w#	c #221302",
"x#	c #331E00",
"y#	c #02124E",
"z#	c #1E1500",
"A#	c #13133E",
"B#	c #01124F",
"C#	c #0F257B",
"D#	c #0E32A3",
"E#	c #130701",
"F#	c #180A01",
"G#	c #0F32A2",
"H#	c #102B8C",
"I#	c #01165B",
"J#	c #1F0E05",
"K#	c #1F0E06",
"L#	c #113AB6",
"M#	c #0F2377",
"N#	c #01165C",
"O#	c #474443",
"P#	c #A0A0A0",
"Q#	c #6B70A0",
"R#	c #0F36AC",
"S#	c #6A6C81",
"T#	c #242221",
"U#	c #011353",
"V#	c #01124E",
"W#	c #656565",
"X#	c #B7B7B7",
"Y#	c #DDDDDD",
"Z#	c #C4C4C4",
"`#	c #ACACAC",
" $	c #60605F",
".$	c #1A0B04",
"+$	c #B8B8B8",
"@$	c #BCBCBC",
"#$	c #B6AFAF",
"$$	c #7D7A7A",
"%$	c #675E5E",
"&$	c #716868",
"*$	c #544040",
"=$	c #5F5F5F",
"-$	c #0F0500",
";$	c #160902",
">$	c #A49595",
",$	c #D47676",
"'$	c #B09D9D",
")$	c #AFA3A3",
"!$	c #E30503",
"~$	c #EB0503",
"{$	c #460403",
"]$	c #5E0706",
"^$	c #665E5E",
"/$	c #AFAFAF",
"($	c #4D2E2E",
"_$	c #775454",
":$	c #726766",
"<$	c #302726",
"[$	c #1C0C01",
"  . + + + + + + @ #       $ % + + + + + + + + + + + + + + + + + + + + + + + + + + + % & * ",
"= - ; ; ; > , ' ) ! ~ { ] ^ / ( _ - ; ; ; ; ; ; ; ; ; ; ; ; ; ; ; ; ; ; ; : < < [ } + & * ",
"| ; ; ; 1 2 3 4 4 4 4 4 5 6 7 4 8 9 0 a ; ; ; ; : b ; ; ; ; ; ; ; ; ; ; ; ; ; ; c d + & * ",
"| ; ; ; = e 4 4 4 4 4 4 f g ! h 8 4 4 i j k ; l m n > ; ; ; ; ; ; ; ; ; ; ; ; ; : - o & * ",
"p : : : : q r 3 4 4 4 4 s t u v w 4 4 4 x y z A B C ; ; ; ; ; ; ; ; : : : : : : | =   & * ",
"D D D D D E F G H 4 4 4 I J K L M N 4 4 O P Q R B S k k k k k k k k T D D D D D D D   & * ",
"$ $ $ $ $ U V W $ X Y 4 Z J `  .4 ..4 4 +.@.#.$.%.&.W W W W W W W W U $ $ $ $ $ $ $ *.& * ",
"=.=.=.=.=.=.=.-.;.>.,.'.).!.~.{.4 4 4 4 4 ].^./.(._.    :.+ + + + + + + + + + <.      [.* ",
"=.=.=.=.=.=.}.|.'.4 4 4 Y 1.8 4 4 4 4 4 4 4 2.3.4.5.6.p : ; ; ; ; ; ; ; ; ; 7.8.E E E 9.* ",
"=.=.=.=.=.0.a.4 4 4 4 4 4 4 4 4 4 4 b.c.d.e.4 f.g.e.h.: ; ; ; ; ; ; ; ; ; ; i.E E E E 9.* ",
"=.=.=.=.j.k.4 4 4 4 4 4 4 4 4 4 4 l.m.n.o.p.q.4 4 x r.s.; ; ; ; ; ; ; ; 7.i.T E E E E t.u.",
"=.=.=.v.w.4 4 4 4 4 4 4 4 4 4 4 4 x.n.n.n.y.z.A.B.C.D.E ; ; ; ; ; ; E.: 8.T E E E E E F.G.",
"=.=.=.H.3 4 4 4 4 4 4 4 4 4 4 4 a.I.n.n.n.n.J.K.L.M.N.k k k k k k k T D D D D D D D D O.P.",
"=.=.=.Q.R.S.T.U.V.W.X.Y.3 4 4 4 Z.`.n.n.n.n. +.+++@+#+$+$+$+$+$+$+$+U U U U U U U U U %+&+",
"      j.*.      *+=+7 4 4 4 4 4 -+;+n.n.n.n.>+,+n. +'+@ + + + $+=.=.=.=.=.=.)+      )+!+~+",
"E E E )+  q q {+]+4 4 4 4 4 '.^+/+(+_+:+n.n.n.n.<+[+}+|+p k k 1+=.=.=.=.=.=.2+c E E . %+&+",
"E E E )+:.; k 3+4 4 4 4 4 4 4+5+J J J 6+7+8+9+0+a+b+c+d+e+e+e+f+=.=.=.=.=.=.=.$+E E E g+h+",
"E E E )+:.; i+L 4 4 4 4 4 4 j+J J J J J J J J J J k+l+T E E E $+=.=.=.=.=.=.=.*.$+c E m+n+",
"E E E )+:.7.o+4 4 4 4 4 p+q+r+s+J J J J J J J J t+u+v+w+w+p E $+=.=.=.=.=.=.=.$ $+c c x+y+",
"z+z+z+)+A+D B+4 4 C+D+E+F+G+k.H+I+J+K+L+M+J s+N+O+E.P+P+P+: E $+=.=.=.=.=.=.=.)+z+z+  !+Q+",
"U U U R+S+T+'.U+V+W+X+X+Y+Z+`+ @.@+@@@#@$@%@&@)+f+f+f+f+f+$+U R+=.=.=.=.=.=.=.R+U U $ !+*@",
"=.=.=.=.=.=@-@-.=.=.=.;@>@,@'@)@7 4 4 !@~@{@]@=.=.=.=.=.=.=.=.=.=.=.=.=.=.=.=.=.=.=.=.^@/@",
"=.=.=.=.=.=.=.=.=.=.(@_@:@<@'@[@e.4 3 }@J |@1@=.=.$ f+f+f+f+f+f+f+f+f+f+f+f+f+f+f+f+$+2@3@",
"=.=.=.=.=.=.=.=.=.=.4@5@6@7@8@e.4 4 9@0@J J a@=.=.% P+P+P+P+P+P+P+P+P+P+P+P+P+P+P+P+i.F.b@",
"=.=.=.=.=.=.=.=.=.=.c@d@J e@f@>@4 4 g@J J h@i@j@k@l@m@P+; ; ; ; ; ; ; ; ; ; ; ; ; 8.n@o@p@",
"=.=.=.=.=.=.=.=.=.=.q@J r@s@-.9 4 8 t@J J u@v@ +w@x@y@z@; ; ; ; ; ; ; ; ; ; ; ; ; p E A@B@",
"=.=.=.=.=.=.=.=.=.=.C@J D@E@-.F@4 Z.G@J J H@I@J@K@J.L@M@k ; ; ; ; ; ; ; ; ; ; ; > p E m+N@",
"=.=.=.=.=.=.=.=.O@P@Q@R@S@++T@) 4 Z.U@J J V@W@X@Y@M@y@Z@; ; ; ; ; ; ; ; ; ; 8.q q e+E `@ #",
"=.=.=.=.=.=.=..#+#@###$#%#&#*#=#4 8 -#J J ;#>#,#'#)#!#@ + + + + + + + + + + o         ~#{#",
"U U U U U U U U ]#^#/#(#_#:#j.<#4 4 [#}#<@|#1#$+$+$+$+$+$+$+$+$+2#U U U U U U U U U $ 3#4#",
"D D D D D D D D 5#n.n.n.6#7#8#9#4 a.0#a#b#c#k k k k k k k k k k - D D D D D D D D D   %+d#",
"E E E E E E E E e#J@f#g#h#i#j#4 4 k#l#B m#: ; ; ; ; ; ; ; ; ; ; 7.: : : : : : : : : <.n#o#",
"E E E E E E E E . =.o@p 7.; p#4 4 i+q#B r#| ; ; ; ; ; ; ; ; ; ; ; ; ; ; ; ; ; ; ; ; + s#t#",
"E E E E E E E E . =.c#; ; k u#4 L {+v#B r#i.; ; ; ; ; ; ; ; ; ; ; ; ; ; ; ; ; ; ; ; + w#x#",
"E E E E E E E E . =.D p p } Z+4 q+{+y#B r#p ; ; ; ; ; ; ; ; ; ; ; ; ; ; ; ; ; ; ; ; + 3#z#",
"                $+=.$+    A#4 4 R.2+B#B r#} + + + + + + + + + + + + + + + + + + + + % & * ",
"*.$ $ $ $ $ $ $ $ $ $ $ $ C#4 4 D#=.C B r#E#=.=.=.F#$ $ $ $ $ $ $ =.=.=.=.=.=.=.=.=.=.& * ",
"  D D D D D D D D D D D D G#4 4 H#-.I#B r#E#=.=.=.)+D D D D D D J#=.=.=.=.=.=.=.=.=.=.& * ",
"  E E E E E E E E E E E K#L#4 4 M#E@N#B r#E#=.=.=.$ f+f+f+f+f+f+)+=.=.=.=.=.=.=.=.=.=.& * ",
"  E E E E E E E E E E O#P#Q#R#_@S#T#U#r#V#W#c@=.=.=.=.=.=.=.=.=.=.=.=.=.=.=.=.=.=.=.=.& * ",
"  E E E E E E E E E E X#n.n.6#Y#o.Z#y@`#X# + $=.=.=.=.=.=.=.=.=.=.=.=.=.=.=.=.=.=.=.=.& * ",
"  E E E E E E E E E .$|++$@$@$@$#$$$%$&$*$}+=$-$-.=.=.=.=.=.=.=.=.=.=.=.$ d )+=.=.=.=.& * ",
"2#              ;$>$,$'$n.)$!$~$!${$]$]$^$/$($_$:$<$=.=.=.=.=.=.=.=.=.=.*.  U =.=.=.=.& * ",
"& & & & & & & & & & & & & & & & & & & & & & & & & & & & & & & & & & & & & & & & & & & [$* ",
"* * * * * * * * * * * * * * * * * * * * * * * * * * * * * * * * * * * * * * * * * * * * * "};
