/* XPM */
static char * walll_xpm[] = {
"45 45 153 2",
"  	c #422D05",
". 	c #402C04",
"+ 	c #3F2B03",
"@ 	c #3F2C03",
"# 	c #483209",
"$ 	c #483A0D",
"% 	c #48380C",
"& 	c #48340A",
"* 	c #48360B",
"= 	c #48330A",
"- 	c #483109",
"; 	c #483309",
"> 	c #47340A",
", 	c #352100",
"' 	c #1A1100",
") 	c #241000",
"! 	c #281000",
"~ 	c #231402",
"{ 	c #231803",
"] 	c #201201",
"^ 	c #231903",
"/ 	c #231602",
"( 	c #231A02",
"_ 	c #231502",
": 	c #1D0F01",
"< 	c #170B01",
"[ 	c #190B01",
"} 	c #1A0B01",
"| 	c #1D0C01",
"1 	c #211004",
"2 	c #221105",
"3 	c #251306",
"4 	c #261406",
"5 	c #241306",
"6 	c #211105",
"7 	c #201004",
"8 	c #1E0E04",
"9 	c #1D0E03",
"0 	c #200F04",
"a 	c #241206",
"b 	c #1B0B01",
"c 	c #251307",
"d 	c #271408",
"e 	c #2A1609",
"f 	c #2B1609",
"g 	c #291509",
"h 	c #271308",
"i 	c #261308",
"j 	c #231106",
"k 	c #1F0F04",
"l 	c #291508",
"m 	c #281508",
"n 	c #2C170A",
"o 	c #2B160A",
"p 	c #2A160A",
"q 	c #211005",
"r 	c #231206",
"s 	c #2A1509",
"t 	c #281408",
"u 	c #221005",
"v 	c #281409",
"w 	c #281509",
"x 	c #2B170A",
"y 	c #241207",
"z 	c #1F0E04",
"A 	c #221006",
"B 	c #241107",
"C 	c #221106",
"D 	c #210F05",
"E 	c #1D0E04",
"F 	c #1B0D03",
"G 	c #1A0C03",
"H 	c #1B0C03",
"I 	c #1C0D03",
"J 	c #1A0C02",
"K 	c #1B0C02",
"L 	c #1D0D03",
"M 	c #1C0C03",
"N 	c #1B0C01",
"O 	c #170A01",
"P 	c #190B02",
"Q 	c #241106",
"R 	c #200E03",
"S 	c #231107",
"T 	c #251406",
"U 	c #321F00",
"V 	c #271407",
"W 	c #1F1300",
"X 	c #311B00",
"Y 	c #251207",
"Z 	c #291707",
"` 	c #362201",
" .	c #1A0B02",
"..	c #200F05",
"+.	c #211006",
"@.	c #271605",
"#.	c #3B2901",
"$.	c #180B02",
"%.	c #180A01",
"&.	c #1D0D04",
"*.	c #231503",
"=.	c #231105",
"-.	c #1C0E03",
";.	c #211302",
">.	c #372500",
",.	c #251308",
"'.	c #221107",
").	c #241503",
"!.	c #331D00",
"~.	c #412C04",
"{.	c #201006",
"].	c #281706",
"^.	c #3D2B02",
"/.	c #271409",
"(.	c #200F06",
"_.	c #261504",
":.	c #3E2B03",
"<.	c #1F0F05",
"[.	c #1E0F04",
"}.	c #392801",
"|.	c #1E0E03",
"1.	c #1E1101",
"2.	c #372700",
"3.	c #180B01",
"4.	c #1D0E01",
"5.	c #251400",
"6.	c #171000",
"7.	c #180C01",
"8.	c #251407",
"9.	c #281B06",
"0.	c #422E08",
"a.	c #403307",
"b.	c #2B1A08",
"c.	c #2B1B08",
"d.	c #48370B",
"e.	c #291600",
"f.	c #221206",
"g.	c #201005",
"h.	c #261705",
"i.	c #443008",
"j.	c #231603",
"k.	c #3A2901",
"l.	c #231205",
"m.	c #261307",
"n.	c #1F1004",
"o.	c #452E06",
"p.	c #261407",
"q.	c #221302",
"r.	c #331E00",
"s.	c #1A0D01",
"t.	c #1E1500",
"u.	c #1C0D04",
"v.	c #1F0E05",
"  . + @ # $ % & * = - - ; > + , ' ) ! ! ! ! ! ! ! ! ! ! ! ! ! ! ! ! ! ! ! ! ! ! ! ! ! ! ! ",
"~ ~ { ] ^ ^ { / / ( ^ ^ ~ _ ] : < [ } } } } } } } } } } } } } } } } } } } } } } } } } | ! ",
"1 2 3 4 4 4 4 4 5 6 7 7 8 9 0 3 3 3 3 3 3 3 3 3 3 3 3 3 3 3 3 3 3 3 3 3 3 3 3 3 3 a 0 b ! ",
"c d e f f f f f g h i i j k 2 f f f f f f f f f f f f f f f f f f f f f f f f f f l a } ! ",
"m e n n n n n n n o p p i q r n n n n n n n n n n n n n n n n n n n n n n n n n n e a } ! ",
"s o n n n n n n n n n n t u r n n n n n n n n n n n n n n n n n n n n n n n n n o d q } ! ",
"t v w w w g x n n n n n t u r n n n n n n n n n n n n n n n n n n n g w w w w w d y z } ! ",
"A A A A A r d l l l l l c 0 q l l l l l l l l l l l l l l l l l l t B C A A A A A D E } ! ",
"F G G G G H 9 8 8 8 8 8 I J K 8 8 8 8 8 k k k k k k k k k 0 0 0 0 k 9 L I I I I M H J N ! ",
"O O O O O O O O O O O O O O O O O O O P L 8 8 8 8 8 8 8 q j Q Q Q Q Q Q Q Q j q k 8 8 R ! ",
"O O O O O O O O O O O O O O O O O O O K C i i i i i i i g f n n n n n n n n e d B S S T U ",
"O O O O O O O O O O O O O O O O O O O L V o o o o o o o n n n n n n n n n f d y S S S 3 W ",
"O O O O O O O O O O O O O O O O O O O 9 d n n n n n n n n n n n n n n n f d y S S S S 4 X ",
"O O O O O O O O O O O O O O O O O O O I Y e n n n n n n n n n n n n s g d y S S S S y Z ` ",
"O O O O O O O O O O O O O O O O O O O  ...Y d t t t t t t t t t t d a C A +.+.q q +.C @.#.",
"P P $.%.%.P P P P J J J J J J J J J J F E 0 u u u u u u u u q ..k 8 I I F F I &.&.&.9 *.` ",
"E E I J J 8 8 8 k =.r r r r r r r r r r r r r r r r r r j j q L O O O O O O H &.E &.-.;.>.",
"S S +.&.8 Y ,.,.t o n n n n n n n n n n n n n n n n n p p s t 7 O O O O O $.E +.S '.q ).!.",
"S S +.E q s o o x n n n n n n n n n n n n n n n n n x i y y C 9 O O O O O O $.I +.S y @.~.",
"S S +.E q f n n n n n n n n n n n n n n x g h i i i i B S S A L O O O O O O O P I {.y ].^.",
"S S +.E q f n n n n n n n n n n n n n n n s v v v v v /./.i C L O O O O O O O P E (.C _.:.",
"+.+.<.I k t m m m m m m m m m m m m m m m t d d d d d d d c q F O O O O O O O J 8 <.[.~ }.",
"H H J P J |.|.|.|.|.|.|.|.|.|.|.|.|.|.|.|.|.|.|.|.|.|.|.|.9 F P O O O O O O O $.J J J 1.2.",
"O O O O O O O O O O O O O O O O O O O O O O O O O O O O O O O O O O O O O O O O O O 3.4.5.",
"O O O O O O O O O O O O O O O O O O O O O O O O O  .|.|.|.|.|.|.|.|.|.|.|.|.|.|.|.|.9 G 6.",
"7.O O O O O O O O O O O O O O O O O O O O O O O 3.8 m m m m m m m m m m m m m m m V 8.9.0.",
"%.O O O O O O O O O O O O O O O O O O O O O O O 3.7 x n n n n n n n n n n n n n o g i Z a.",
"3.O O O O O O O O O O O O O O O O O O O O O O O [ 7 x n n n n n n n n n n n n n e h y b.* ",
"3.O O O O O O O O O O O O O O O O O O O O O O 3.[ 7 x n n n n n n n n n n n x x s i S c.d.",
"3.O O O O O O O O O O O O O O O O O O O O O J E &.7 x n n n n n n n n n n x w i Y B S a e.",
"3.O O O O O O O O O O O O O O O O O O O O O P F G I =.r r r r r r r r r r f.g.8 8 8 [.h.i.",
"-.F F F F F F F J 3.-.k k k k k k k k k k k k 0 0 0 q u u u u u 1 8 8 8 8 8 8 &.&.L I j.k.",
"C +.+.+.+.+.q ..8 J l.d t t t t t t t t t t t t t t t t t t t t m.j C C C C C C C +.n.~ o.",
"y S S S S S S S ..F p.x n n n n n n n n n n n n n n n n n n n n o g w w w w w w w d r q.r.",
"y S S S S S S S ..F p.x n n n n n n n n n n n n n n n n n n n n n n n n n n n n n f 3 s.t.",
"y S S S S S S S ..H m.e o o o o o o x n n n n n n n n n n n n n n n n n n n n n n f 3 } ! ",
"y S S S S S S S ..J u Y i i i i i i v o n n n n n n n n n n n n n n n n n n n n n e 3 } ! ",
"8 8 8 8 8 8 8 8 I [ M 8 8 8 8 8 8 8 g.j Q Q Q Q Q Q Q Q Q Q Q Q Q Q Q Q Q Q Q Q Q j k } ! ",
"J H M M M M M M H H H H M M M H $.$.P P P P P P P G I u.u.u.u.u.I P P P P P P P P P 3.} ! ",
"E ..+.+.+.+.+.+.+.+.+.+.+.+.+.v.$.O O O O O O O %.H ............E $.O O O O O O O O O } ! ",
"z A S S S S S S S S S S S S S D $.O O O O O O O O P I u.u.u.u.u.H O O O O O O O O O O } ! ",
"z A S S S S S S S S S S S S S D $.O O O O O O O O O O $.3.$.$.$.O O O O O O O O O O O } ! ",
"z A S S S S S S S S S S S S S D $.P J P %.O O O O O O O O O O O O O O O %.P %.O O O O } ! ",
"8 +.A A A A A A A A A A A A A ..$.I 8 E P O O O O O O O O O O O O O O O P u.J %.O O O } ! ",
"F 8 z z z z z z z z z z z z z E 3.I 8 E P O O O O O O O O O O O O O O O P E J O O O %.b ! "};
