/* XPM */
static char * colletible_xpm[] = {
"45 45 920 2",
"  	c #422D05",
". 	c #402C04",
"+ 	c #3F2B03",
"@ 	c #3F2C03",
"# 	c #483209",
"$ 	c #483A0D",
"% 	c #48380C",
"& 	c #48340A",
"* 	c #48360B",
"= 	c #48330A",
"- 	c #483109",
"; 	c #483309",
"> 	c #47340A",
", 	c #352100",
"' 	c #1A1100",
") 	c #241000",
"! 	c #281000",
"~ 	c #442E06",
"{ 	c #472F07",
"] 	c #483B0D",
"^ 	c #3E2B03",
"/ 	c #483F10",
"( 	c #483D0F",
"_ 	c #48350A",
": 	c #48350B",
"< 	c #484008",
"[ 	c #483F0C",
"} 	c #483E0D",
"| 	c #483108",
"1 	c #352200",
"2 	c #412D04",
"3 	c #452E06",
"4 	c #483008",
"5 	c #483C0B",
"6 	c #483F0F",
"7 	c #48390D",
"8 	c #484003",
"9 	c #484002",
"0 	c #483B0C",
"a 	c #403106",
"b 	c #341F00",
"c 	c #1B1200",
"d 	c #422F06",
"e 	c #432E05",
"f 	c #45390C",
"g 	c #483C0E",
"h 	c #483E0F",
"i 	c #483F06",
"j 	c #3B2D03",
"k 	c #372301",
"l 	c #423006",
"m 	c #432D05",
"n 	c #452F06",
"o 	c #48370C",
"p 	c #3F3206",
"q 	c #423409",
"r 	c #453208",
"s 	c #3A2801",
"t 	c #49360B",
"u 	c #44380B",
"v 	c #483A0C",
"w 	c #463309",
"x 	c #473008",
"y 	c #453309",
"z 	c #433006",
"A 	c #432F06",
"B 	c #3D2903",
"C 	c #3C2A02",
"D 	c #473B0D",
"E 	c #47390D",
"F 	c #483B0E",
"G 	c #462F07",
"H 	c #382700",
"I 	c #352300",
"J 	c #382800",
"K 	c #3D2A02",
"L 	c #3A2901",
"M 	c #412C04",
"N 	c #3D2B03",
"O 	c #3C2C09",
"P 	c #4A4622",
"Q 	c #77703E",
"R 	c #988E4A",
"S 	c #B2AD59",
"T 	c #BDBD5F",
"U 	c #C2C25E",
"V 	c #BEBD60",
"W 	c #AEAB57",
"X 	c #96934B",
"Y 	c #76743D",
"Z 	c #524D26",
"` 	c #322309",
" .	c #331F00",
"..	c #311B00",
"+.	c #321C00",
"@.	c #362400",
"#.	c #372501",
"$.	c #3A2602",
"%.	c #392601",
"&.	c #392501",
"*.	c #3C2703",
"=.	c #402A05",
"-.	c #544924",
";.	c #969056",
">.	c #C7C279",
",.	c #E3E191",
"'.	c #F1F09A",
").	c #F6F598",
"!.	c #F9F790",
"~.	c #F9F586",
"{.	c #F9F480",
"].	c #F6F380",
"^.	c #F2F07F",
"/.	c #E4E279",
"(.	c #CAC76A",
"_.	c #969649",
":.	c #504E21",
"<.	c #2B1603",
"[.	c #1C1100",
"}.	c #2F2A11",
"|.	c #7A7746",
"1.	c #C6C287",
"2.	c #EDE9B3",
"3.	c #F8F5BF",
"4.	c #F7F7BD",
"5.	c #F3F3B4",
"6.	c #F3EFA6",
"7.	c #F4EC99",
"8.	c #F4E98C",
"9.	c #F6ED82",
"0.	c #F8EC81",
"a.	c #F9EA80",
"b.	c #FBEC80",
"c.	c #F7F17F",
"d.	c #ECEB78",
"e.	c #CCC967",
"f.	c #7F7B3F",
"g.	c #3A2D14",
"h.	c #211000",
"i.	c #231000",
"j.	c #362E00",
"k.	c #383106",
"l.	c #38310A",
"m.	c #4A3E16",
"n.	c #979362",
"o.	c #DDDBA7",
"p.	c #F5F4C9",
"q.	c #F4EEC8",
"r.	c #E5DAAC",
"s.	c #D1C18B",
"t.	c #BDAB74",
"u.	c #B0A16A",
"v.	c #AD9F62",
"w.	c #B7A55D",
"x.	c #C3B060",
"y.	c #D3B969",
"z.	c #E4C273",
"A.	c #F0CA75",
"B.	c #F4D872",
"C.	c #F9EA7B",
"D.	c #F6F489",
"E.	c #DEDF86",
"F.	c #A19A5E",
"G.	c #503E19",
"H.	c #3C2504",
"I.	c #3C2505",
"J.	c #332001",
"K.	c #352101",
"L.	c #392303",
"M.	c #3A2404",
"N.	c #311F00",
"O.	c #321F00",
"P.	c #352700",
"Q.	c #413900",
"R.	c #1E1200",
"S.	c #3F3415",
"T.	c #9E9668",
"U.	c #E5E1B6",
"V.	c #F5F2CC",
"W.	c #E1D8AC",
"X.	c #B8AC7F",
"Y.	c #907E5A",
"Z.	c #726044",
"`.	c #63503F",
" +	c #5C4E41",
".+	c #5F533F",
"++	c #6C5C40",
"@+	c #7C6844",
"#+	c #8F7D48",
"$+	c #A9914F",
"%+	c #C3A454",
"&+	c #D5B450",
"*+	c #E6C857",
"=+	c #F2E47F",
"-+	c #F7F6A3",
";+	c #EAE49D",
">+	c #A89B66",
",+	c #473919",
"'+	c #311900",
")+	c #311A00",
"!+	c #321B00",
"~+	c #2E1A00",
"{+	c #1F1300",
"]+	c #352704",
"^+	c #221A01",
"/+	c #3B2B0B",
"(+	c #8F8758",
"_+	c #E3DEB1",
":+	c #F2EDC5",
"<+	c #D0C897",
"[+	c #96875C",
"}+	c #615140",
"|+	c #3E3538",
"1+	c #322C38",
"2+	c #322B3C",
"3+	c #393040",
"4+	c #3F353F",
"5+	c #493C40",
"6+	c #57463E",
"7+	c #655739",
"8+	c #7C6C3D",
"9+	c #948341",
"0+	c #AC9842",
"a+	c #C5A63F",
"b+	c #DABD58",
"c+	c #F1E38D",
"d+	c #FAF6BE",
"e+	c #E8E1AD",
"f+	c #969059",
"g+	c #483710",
"h+	c #372600",
"i+	c #372700",
"j+	c #3B2802",
"k+	c #382601",
"l+	c #352404",
"m+	c #341E01",
"n+	c #6D6138",
"o+	c #D6CA95",
"p+	c #F2E9BF",
"q+	c #C9BC92",
"r+	c #887550",
"s+	c #4F413F",
"t+	c #2F2739",
"u+	c #322C3C",
"v+	c #443B46",
"w+	c #4B4348",
"x+	c #4A4947",
"y+	c #4C4A45",
"z+	c #514845",
"A+	c #5F4E46",
"B+	c #665644",
"C+	c #6E5B40",
"D+	c #80693E",
"E+	c #967F3E",
"F+	c #AB923F",
"G+	c #BDA145",
"H+	c #DABF5C",
"I+	c #F6E8A7",
"J+	c #F8F7CE",
"K+	c #D7D2A0",
"L+	c #766B40",
"M+	c #402D04",
"N+	c #483E0B",
"O+	c #453409",
"P+	c #362201",
"Q+	c #352605",
"R+	c #473516",
"S+	c #BAA86E",
"T+	c #F0E6AA",
"U+	c #D2C591",
"V+	c #8A7851",
"W+	c #52413C",
"X+	c #312940",
"Y+	c #3C3641",
"Z+	c #4D4244",
"`+	c #4E4447",
" @	c #453E3F",
".@	c #393535",
"+@	c #3B342E",
"@@	c #3E3431",
"#@	c #52413B",
"$@	c #655848",
"%@	c #78674A",
"&@	c #806543",
"*@	c #87713E",
"=@	c #9A8340",
"-@	c #AB9141",
";@	c #BDA545",
">@	c #E0C974",
",@	c #F8F0BA",
"'@	c #F7F1C8",
")@	c #BDB17D",
"!@	c #52421C",
"~@	c #48390C",
"{@	c #3B2901",
"]@	c #372105",
"^@	c #7D6A3C",
"/@	c #E4D590",
"(@	c #E2DB98",
"_@	c #A1915C",
":@	c #60513E",
"<@	c #443539",
"[@	c #524344",
"}@	c #524949",
"|@	c #3E353F",
"1@	c #332B2F",
"2@	c #3D311F",
"3@	c #42351A",
"4@	c #463511",
"5@	c #453110",
"6@	c #402D15",
"7@	c #403424",
"8@	c #61523A",
"9@	c #887045",
"0@	c #8C753F",
"a@	c #927E3E",
"b@	c #A3893E",
"c@	c #AB9741",
"d@	c #C3AB4C",
"e@	c #E8D793",
"f@	c #F9F5D0",
"g@	c #E3DCAA",
"h@	c #7E7544",
"i@	c #49330C",
"j@	c #48370B",
"k@	c #423111",
"l@	c #AA9B58",
"m@	c #F0E295",
"n@	c #C6B571",
"o@	c #806B45",
"p@	c #54463E",
"q@	c #605343",
"r@	c #6F5B4A",
"s@	c #44383D",
"t@	c #36302D",
"u@	c #443617",
"v@	c #48390E",
"w@	c #452F07",
"x@	c #452E09",
"y@	c #3B2E16",
"z@	c #6E5738",
"A@	c #A38349",
"B@	c #9E843D",
"C@	c #A38E3E",
"D@	c #A4933D",
"E@	c #B29742",
"F@	c #D3BD6B",
"G@	c #F4EDBA",
"H@	c #F3EFC3",
"I@	c #B1A66A",
"J@	c #524419",
"K@	c #483F0E",
"L@	c #483F08",
"M@	c #372500",
"N@	c #564720",
"O@	c #C9B465",
"P@	c #E6CF82",
"Q@	c #A69056",
"R@	c #705D3E",
"S@	c #63513E",
"T@	c #86724D",
"U@	c #6B5A43",
"V@	c #40362F",
"W@	c #453A16",
"X@	c #483808",
"Y@	c #484001",
"Z@	c #3B2A02",
"`@	c #3A2701",
" #	c #443118",
".#	c #957542",
"+#	c #B19145",
"@#	c #A8933F",
"##	c #AC9940",
"$#	c #AA8E3F",
"%#	c #C2A34C",
"&#	c #EBDA91",
"*#	c #F8F3BD",
"=#	c #CCBF80",
"-#	c #655427",
";#	c #483F03",
">#	c #484000",
",#	c #483F07",
"'#	c #473309",
")#	c #392800",
"!#	c #331D00",
"~#	c #6C5A2D",
"{#	c #DABD6C",
"]#	c #D5B669",
"^#	c #958047",
"/#	c #73603D",
"(#	c #857446",
"_#	c #9A8453",
":#	c #675739",
"<#	c #46391C",
"[#	c #3C3004",
"}#	c #362004",
"|#	c #6C552D",
"1#	c #B79547",
"2#	c #BA9E43",
"3#	c #B69C42",
"4#	c #A88E3D",
"5#	c #B09341",
"6#	c #D8C16C",
"7#	c #F7EEA4",
"8#	c #DECD86",
"9#	c #786432",
"0#	c #483E0A",
"a#	c #48380D",
"b#	c #413307",
"c#	c #746436",
"d#	c #D5B96C",
"e#	c #C5AA5B",
"f#	c #987E44",
"g#	c #806B3A",
"h#	c #AD9952",
"i#	c #A08C4E",
"j#	c #665534",
"k#	c #47390C",
"l#	c #3F3005",
"m#	c #3E2E04",
"n#	c #493A1A",
"o#	c #B29741",
"p#	c #C8AC45",
"q#	c #BAA144",
"r#	c #AA943F",
"s#	c #A38A3C",
"t#	c #C4AB54",
"u#	c #EEDD8A",
"v#	c #E4D082",
"w#	c #81753B",
"x#	c #463A0D",
"y#	c #3D2B02",
"z#	c #7B6C3F",
"A#	c #CDB26E",
"B#	c #BBA354",
"C#	c #9D8143",
"D#	c #998340",
"E#	c #C7B055",
"F#	c #A99346",
"G#	c #61552C",
"H#	c #483A0B",
"I#	c #403006",
"J#	c #463A0C",
"K#	c #443609",
"L#	c #2F280D",
"M#	c #A9943D",
"N#	c #D2B650",
"O#	c #C8AF59",
"P#	c #B09947",
"Q#	c #9F843C",
"R#	c #B79B47",
"S#	c #DDC36E",
"T#	c #DAC372",
"U#	c #807336",
"V#	c #3F2D04",
"W#	c #413106",
"X#	c #45370B",
"Y#	c #7D6F3F",
"Z#	c #C5AB66",
"`#	c #BAA051",
" $	c #A5883F",
".$	c #B49E4F",
"+$	c #DCC768",
"@$	c #B7A44C",
"#$	c #645726",
"$$	c #45350A",
"%$	c #43370A",
"&$	c #46370B",
"*$	c #46350A",
"=$	c #232209",
"-$	c #A39141",
";$	c #D9BD5F",
">$	c #D9BB6C",
",$	c #B99D50",
"'$	c #A0833C",
")$	c #AA8F41",
"!$	c #C5AB58",
"~$	c #C5AF60",
"{$	c #7D703B",
"]$	c #473209",
"^$	c #432E06",
"/$	c #46360A",
"($	c #392801",
"_$	c #746836",
":$	c #BAA052",
"<$	c #BD9F4A",
"[$	c #B49A42",
"}$	c #D3BB6C",
"|$	c #F3E48D",
"1$	c #C9BA62",
"2$	c #6D632A",
"3$	c #422D04",
"4$	c #392901",
"5$	c #311C00",
"6$	c #322D12",
"7$	c #B0A050",
"8$	c #E7CC68",
"9$	c #E4C170",
"0$	c #C09D53",
"a$	c #A1823C",
"b$	c #A28741",
"c$	c #B39A49",
"d$	c #B0984C",
"e$	c #6D6332",
"f$	c #63552A",
"g$	c #B09441",
"h$	c #BEA043",
"i$	c #C0A245",
"j$	c #E2CB7B",
"k$	c #FAF2AD",
"l$	c #E1D285",
"m$	c #8A7939",
"n$	c #372101",
"o$	c #382202",
"p$	c #352001",
"q$	c #2E1700",
"r$	c #1A1000",
"s$	c #50441B",
"t$	c #C5B45B",
"u$	c #F3DA75",
"v$	c #EAC973",
"w$	c #BD9C50",
"x$	c #A08140",
"y$	c #9F8142",
"z$	c #A38740",
"A$	c #A28343",
"B$	c #65552A",
"C$	c #392202",
"D$	c #3A2303",
"E$	c #331E00",
"F$	c #251400",
"G$	c #280F00",
"H$	c #574222",
"I$	c #A3873D",
"J$	c #BA9F3F",
"K$	c #C4A442",
"L$	c #E3CD73",
"M$	c #F9F5C3",
"N$	c #F2E8B5",
"O$	c #B2A05D",
"P$	c #3E3714",
"Q$	c #181000",
"R$	c #170F00",
"S$	c #221B04",
"T$	c #7A6F37",
"U$	c #DECF6B",
"V$	c #F9EA7F",
"W$	c #E2CE73",
"X$	c #B1954B",
"Y$	c #9E7F41",
"Z$	c #9A8141",
"`$	c #957F41",
" %	c #947844",
".%	c #534526",
"+%	c #171000",
"@%	c #433A0D",
"#%	c #43330A",
"$%	c #432C06",
"%%	c #55401F",
"&%	c #8F773B",
"*%	c #B59B3E",
"=%	c #CEA942",
"-%	c #E6C95F",
";%	c #F7F0B3",
">%	c #FAF5C9",
",%	c #DCCC83",
"'%	c #867734",
")%	c #231D07",
"!%	c #281600",
"~%	c #433B00",
"{%	c #423A0C",
"]%	c #423A0E",
"^%	c #422C06",
"/%	c #5D4B19",
"(%	c #BCAC51",
"_%	c #F1EA7F",
":%	c #F6F187",
"<%	c #D3C76B",
"[%	c #A88D48",
"}%	c #9C7F41",
"|%	c #907C40",
"1%	c #84733F",
"2%	c #7B6A40",
"3%	c #45371E",
"4%	c #261000",
"5%	c #251000",
"6%	c #362F00",
"7%	c #423A03",
"8%	c #422E08",
"9%	c #311D00",
"0%	c #301900",
"a%	c #321D00",
"b%	c #3A2912",
"c%	c #796237",
"d%	c #A88D3D",
"e%	c #C8AB40",
"f%	c #E1C44A",
"g%	c #F4E689",
"h%	c #FCF8BB",
"i%	c #F8EB9F",
"j%	c #CDBB5C",
"k%	c #766829",
"l%	c #413A04",
"m%	c #312800",
"n%	c #251300",
"o%	c #321E00",
"p%	c #4A3C11",
"q%	c #EADC75",
"r%	c #FAF69A",
"s%	c #EFE793",
"t%	c #C4AE5D",
"u%	c #A08441",
"v%	c #927A3E",
"w%	c #816C3D",
"x%	c #7A6340",
"y%	c #655437",
"z%	c #342A11",
"A%	c #201200",
"B%	c #2B1600",
"C%	c #453B00",
"D%	c #402B04",
"E%	c #403307",
"F%	c #3D2A03",
"G%	c #3B2B05",
"H%	c #5D4D2C",
"I%	c #917A3E",
"J%	c #B49C41",
"K%	c #DFB943",
"L%	c #F6D765",
"M%	c #F8F393",
"N%	c #FAF797",
"O%	c #F5E978",
"P%	c #D1C558",
"Q%	c #93893B",
"R%	c #53491C",
"S%	c #423309",
"T%	c #3F2F04",
"U%	c #533E0F",
"V%	c #735D24",
"W%	c #AE9B45",
"X%	c #E5DA77",
"Y%	c #F7F39F",
"Z%	c #F8F4A7",
"`%	c #DECC84",
" &	c #B0934C",
".&	c #987C41",
"+&	c #816D40",
"@&	c #736140",
"#&	c #6F5B41",
"$&	c #52402D",
"%&	c #2F1C04",
"&&	c #2B1601",
"*&	c #3F3306",
"=&	c #453617",
"-&	c #746239",
";&	c #CCA944",
">&	c #F1CB5F",
",&	c #F7ED7A",
"'&	c #F7F884",
")&	c #F9F681",
"!&	c #F5F377",
"~&	c #EAE06A",
"{&	c #CDC25C",
"]&	c #AEA24E",
"^&	c #A29244",
"/&	c #A59640",
"(&	c #BAA347",
"_&	c #D9C365",
":&	c #EEE38F",
"<&	c #F6F6B4",
"[&	c #F9F8BB",
"}&	c #EDDF93",
"|&	c #C0A95C",
"1&	c #9C8341",
"2&	c #886E40",
"3&	c #745C44",
"4&	c #645640",
"5&	c #5D543C",
"6&	c #3F3219",
"7&	c #2F1C00",
"8&	c #291100",
"9&	c #382501",
"0&	c #48380B",
"a&	c #443007",
"b&	c #443107",
"c&	c #483009",
"d&	c #544229",
"e&	c #7C653E",
"f&	c #A58A42",
"g&	c #D3B75A",
"h&	c #F2E173",
"i&	c #F9F57E",
"j&	c #F7F880",
"k&	c #F8F881",
"l&	c #F9F781",
"m&	c #FAF583",
"n&	c #F6EF85",
"o&	c #F2EA82",
"p&	c #F3EB86",
"q&	c #F8ED9C",
"r&	c #F9F4BB",
"s&	c #F9F9D4",
"t&	c #FAF8D2",
"u&	c #F0E6A9",
"v&	c #CDB667",
"w&	c #A18942",
"x&	c #89723F",
"y&	c #745E42",
"z&	c #634B41",
"A&	c #59463E",
"B&	c #463F2F",
"C&	c #3E2C06",
"D&	c #322100",
"E&	c #270E00",
"F&	c #221300",
"G&	c #291600",
"H&	c #483B13",
"I&	c #5D4C30",
"J&	c #7C663F",
"K&	c #A18846",
"L&	c #D0B85A",
"M&	c #F0E074",
"N&	c #F7F480",
"O&	c #FAF791",
"P&	c #FBF8A0",
"Q&	c #F9F9AE",
"R&	c #F9F9BD",
"S&	c #FAF9C7",
"T&	c #FAF9D2",
"U&	c #FAFADF",
"V&	c #FBF9E0",
"W&	c #F9F5CD",
"X&	c #EAE0A4",
"Y&	c #CAB66D",
"Z&	c #A58A47",
"`&	c #755D40",
" *	c #5B4C40",
".*	c #50423E",
"+*	c #4C3B35",
"@*	c #3E3012",
"#*	c #3D2603",
"$*	c #332300",
"%*	c #352D00",
"&*	c #453C02",
"**	c #453C05",
"=*	c #463C0E",
"-*	c #463B0E",
";*	c #44360B",
">*	c #443209",
",*	c #443008",
"'*	c #484010",
")*	c #484007",
"!*	c #494219",
"~*	c #584D37",
"{*	c #756240",
"]*	c #997E44",
"^*	c #C2A754",
"/*	c #E1CF69",
"(*	c #F1E685",
"_*	c #F9F2A0",
":*	c #F9F5BA",
"<*	c #FAF8CF",
"[*	c #FBF8D9",
"}*	c #F9F6D7",
"|*	c #F6F1C7",
"1*	c #F0E7AA",
"2*	c #DDCD81",
"3*	c #BDA759",
"4*	c #9D8343",
"5*	c #866B41",
"6*	c #6B5943",
"7*	c #514641",
"8*	c #413E41",
"9*	c #3D3936",
"0*	c #3E2E1B",
"a*	c #412C05",
"b*	c #3B2702",
"c*	c #312000",
"d*	c #463C00",
"e*	c #392900",
"f*	c #46360B",
"g*	c #482F08",
"h*	c #422C04",
"i*	c #423509",
"j*	c #3E2F05",
"k*	c #483C0D",
"l*	c #48360A",
"m*	c #484004",
"n*	c #473F1B",
"o*	c #534235",
"p*	c #6D5341",
"q*	c #836C40",
"r*	c #A18843",
"s*	c #BFA74F",
"t*	c #D5C167",
"u*	c #E0CF7C",
"v*	c #E4D688",
"w*	c #E4D789",
"x*	c #DFD082",
"y*	c #D1BE70",
"z*	c #BCA555",
"A*	c #A48845",
"B*	c #8C7244",
"C*	c #75613F",
"D*	c #5D4E3B",
"E*	c #493841",
"F*	c #383042",
"G*	c #373637",
"H*	c #40341F",
"I*	c #382801",
"J*	c #372401",
"K*	c #322200",
"L*	c #433609",
"M*	c #47380C",
"N*	c #484110",
"O*	c #47370B",
"P*	c #483D0D",
"Q*	c #453016",
"R*	c #483B2F",
"S*	c #54443C",
"T*	c #66543F",
"U*	c #7C6241",
"V*	c #8D7144",
"W*	c #9B7F45",
"X*	c #A18643",
"Y*	c #A08742",
"Z*	c #9A8242",
"`*	c #8F7442",
" =	c #826840",
".=	c #705B3E",
"+=	c #5B4C3D",
"@=	c #473D3D",
"#=	c #332E3C",
"$=	c #2E273B",
"%=	c #372C31",
"&=	c #423319",
"*=	c #47360B",
"==	c #3B2C02",
"-=	c #2E1800",
";=	c #413006",
">=	c #443308",
",=	c #483B0B",
"'=	c #422F05",
")=	c #462F0E",
"!=	c #3E2D1D",
"~=	c #3F322F",
"{=	c #453938",
"]=	c #51433D",
"^=	c #5A473F",
"/=	c #614A42",
"(=	c #604D42",
"_=	c #5A4A41",
":=	c #534340",
"<=	c #493B3D",
"[=	c #3B313C",
"}=	c #2E283D",
"|=	c #2A233F",
"1=	c #2F293B",
"2=	c #3C2C26",
"3=	c #352600",
"4=	c #201400",
"5=	c #281700",
"6=	c #271500",
"7=	c #271600",
"8=	c #1E1500",
"9=	c #463108",
"0=	c #432D06",
"a=	c #352409",
"b=	c #1E181A",
"c=	c #2C2528",
"d=	c #30262F",
"e=	c #382C37",
"f=	c #322A39",
"g=	c #28273C",
"h=	c #28263A",
"i=	c #2B2337",
"j=	c #2F2836",
"k=	c #342F31",
"l=	c #3C2D26",
"m=	c #3B2B12",
"n=	c #402D05",
"o=	c #463B0D",
"p=	c #2F1A00",
"q=	c #271000",
"r=	c #3F3106",
"s=	c #463409",
"t=	c #291704",
"u=	c #311F0C",
"v=	c #3E2B15",
"w=	c #342719",
"x=	c #34281F",
"y=	c #37281C",
"z=	c #3E2B19",
"A=	c #422F16",
"B=	c #44300F",
"C=	c #423107",
"D=	c #3F2C04",
"E=	c #412F05",
"F=	c #402E05",
"G=	c #342100",
"H=	c #362500",
"I=	c #191000",
"J=	c #2E1B00",
"K=	c #332000",
"L=	c #402C03",
"M=	c #281500",
"N=	c #2F1900",
"O=	c #2F1800",
"P=	c #301A00",
"Q=	c #321B01",
"R=	c #1E1600",
"S=	c #1D1500",
"T=	c #191100",
"U=	c #2D1700",
"V=	c #311B01",
"W=	c #261400",
"X=	c #1A1200",
"Y=	c #191200",
"Z=	c #1A1300",
"`=	c #1B1300",
"  . + @ # $ % & * = - - ; > + , ' ) ! ! ! ! ! ! ! ! ! ! ! ! ! ! ! ! ! ! ! ! ! ! ! ! ! ! ! ",
"~ { ] ^ / ( $ _ : < [ } | # ^ 1 ' ) ! ! ! ! ! ! ! ! ! ! ! ! ! ! ! ! ! ! ! ! ! ! ! ! ! ! ! ",
"2 3 4   5 6 7 = % 8 9 0 a . . b c ) ! ! ! ! ! ! ! ! ! ! ! ! ! ! ! ! ! ! ! ! ! ! ! ! ! ! ! ",
"^ d e f % & ; - g h i *   j   k ' ) ! ! ! ! ! ! ! ! ! ! ! ! ! ! ! ! ! ! ! ! ! ! ! ! ! ! ! ",
"^ l m n % * o - | 7 * p q r   s c ) ! ! ! ! ! ! ! ! ! ! ! ! ! ! ! ! ! ! ! ! ! ! ! ! ! ! ! ",
"  t . { u v 5 w x y z A 3 { . B c ) ! ! ! ! ! ! ! ! ! ! ! ! ! ! ! ! ! ! ! ! ! ! ! ! ! ! ! ",
"~ . C 4 { D E { F x G G { ] ^ H c ) ! ! ! ! ! ! ! ! ! ! ! ! ! ! ! ! ! ! ! ! ! ! ! ! ! ! ! ",
", I J K L   M . + .     . K N O P Q R S T U V W X Y Z ` ! ! ! ! ! ! ! ! ! ! ! ! ! ! ! ! ! ",
"1  ...+.@.#.$.@.@.@.%.&.*.=.-.;.>.,.'.).!.~.{.].^./.(._.:.<.! ! ! ! ! ! ! ! ! ! ! ! ! ! ! ",
"[.[.[.[.[.[.[.[.[.[.[.[.}.|.1.2.3.4.5.6.7.8.9.0.a.b.c.d.e.f.g.! ! ! ! ! ! ! ! ! ! ! ! ! ! ",
"h.h.h.h.h.h.h.i.j.k.l.m.n.o.p.q.r.s.t.u.v.w.x.y.z.A.B.C.D.E.F.G.H.H.H.H.H.I.J.K.L.M.N.N.O.",
"! ! ! ! ! ! ! P.Q.R.S.T.U.V.W.X.Y.Z.`. +.+++@+#+$+%+&+*+=+-+;+>+,++...'+)+!+....)+'+)+~+{+",
"! ! ! ! ! ! ! ]+^+/+(+_+:+<+[+}+|+1+2+3+4+5+6+7+8+9+0+a+b+c+d+e+f+g+h+h+h+i+  . j+k+h+ ...",
"! ! ! ! ! ! ! l+m+n+o+p+q+r+s+t+u+v+w+x+y+z+A+B+C+D+E+F+G+H+I+J+K+L+M 2 2 . M+N+O+{ 3 . P+",
"! ! ! ! ! ! ! Q+R+S+T+U+V+W+X+Y+Z+`+ @.@+@@@#@$@%@&@*@=@-@;@>@,@'@)@!@x x | N ] ~ D ~@^ {@",
"! ! ! ! ! ! ! ]@^@/@(@_@:@<@[@}@|@1@2@3@4@5@6@7@8@9@0@a@b@c@d@e@f@g@h@i@# ~@# = % 7 j@. P+",
"! ! ! ! ! ! ! k@l@m@n@o@p@q@r@s@t@u@v@8 < $ w@x@y@z@A@B@C@D@E@F@G@H@I@J@= 7 K@< L@: {   M@",
"! ! ! ! ! ! ! N@O@P@Q@R@S@T@U@V@W@7 X@Y@9 F Z@M `@ #.#+#@###$#%#&#*#=#-#& $ ;#>#,#'#)#e !#",
"! ! ! ! ! ! ! ~#{#]#^#/#(#_#:#<#o * F $ 5 o   [#. }#|#1#2#3#4#5#6#7#8#9## ~@/ 0#a#| b#L M ",
"! ! ! ! ! ! ! c#d#e#f#g#h#i#j#k#& # 4 F % l#m#  e )#n#o#p#q#r#s#t#u#v#w#| # # : u x#e ^ y#",
"! ! ! ! ! ! ! z#A#B#C#D#E#F#G#H#_ I#3 J#K#. + m m , L#M#N#O#P#Q#R#S#T#U#- l V#W#X#G ~ + ^ ",
"! ! ! ! ! ! ! Y#Z#`# $.$+$@$#$$$%$~ &${ G ~ ~ *$^ @.=$-$;$>$,$'$)$!$~${$]$y ^$~ G x /$  ($",
"! ! ! ! ! ! ! _$:$<$[$}$|$1$2$3$~   ^ C . m ~ 4$($5$6$7$8$9$0$a$b$c$d$e$K M ~   + K . J i+",
"! ! ! ! ! ! ! f$g$h$i$j$k$l$m$n$b  . . .o$p$p$o$q$r$s$t$u$v$w$x$y$z$A$B$ . . . .C$D$o$E$F$",
"G$G$G$G$G$G$G$H$I$J$K$L$M$N$O$P$Q$Q$R$R$R$R$R$R$R$S$T$U$V$W$X$Y$Z$`$ %.%Q$Q$Q$Q$Q$Q$R$R$+%",
"@%#%$%$%$%$%$%%%&%*%=%-%;%>%,%'%)%!%~%{%]%^%^%^%^%/%(%_%:%<%[%}%|%1%2%3%Q$4%4%4%4%5%6%7%8%",
"9%5$0%0%9% .a%b%c%d%e%f%g%h%i%j%k%l%m%n%)+o%o%5$p%F#q%r%s%t%u%v%w%x%y%z%A%! ! ! ! B%C%D%E%",
"J ($C F%M J )#G%H%I%J%K%L%M%N%O%P%Q%R%S%V#T%U%V%W%X%Y%Z%`% &.&+&@&#&$&%&Q$! ! ! ! &&*&* * ",
"H M ^ k#M m   @ =&-&=@;&>&,&'&)&!&~&{&]&^&/&(&_&:&<&[&}&|&1&2&3&4&5&6&7&Q$! ! ! ! 8&9&0&j@",
"@ *$a&b&4 * _ # c&d&e&f&g&h&i&j&k&l&m&n&o&p&q&r&s&t&u&v&w&x&y&z&A&B&C&D&Q$G$E&E&E&E&F&G&G&",
"y#M w@m % & # | g H&I&J&K&L&M&N&O&P&Q&R&S&T&U&V&W&X&Y&Z&*@`& *.*+*@*#*$*Q$%*&***=*-*;*>*,*",
". ~ * ~ F '*% # $ )*!*~*{*]*^*/*(*_*:*<*[*}*|*1*2*3*4*5*6*7*8*9*0*a*b*c*Q$d*e*f*g*% h*i*L ",
"e G x j*0#k*~@& l*m*Y@n*o*p*q*r*s*t*u*v*w*x*y*z*A*B*C*D*E*F*G*H*I*  J*K*Q$L*a&L@M*| N*4 3 ",
"~ O*^ ]$7 F 7 _ : 7 P*F Q*R*S*T*U*V*W*X*Y*Z*`* =.=+=@=#=$=%=&=*=r ==2 -=Q$P+m a&^ y#;=3 E$",
". >=M G ~@~@,=; | * # '=>=)=!=~={=]=^=/=(=_=:=<=[=}=|=1=2=4@o O+    M 3=Q$4=5=!%6=6=7=5=8=",
"N x ~ 3 b#: j@~ 9=%$l#m#  9=0=a=b=c=d=e=f=g=h=i=j=k=l=m=n=u o=m @ ^ . p=Q$! ! ! ! q=! ! ! ",
"^ {@)#G   r=;=3 s=~ . . m s=  @.' t=u=v=w=x=y=z=A=B=C=D=E=3 G ~ F=M+^ 7&Q$! ! ! ! ! ! ! ! ",
" .G=@.H=J     C L y#    M y#H=N.I=+%J=I G=K=H h+L L=+ 3$. C @ .   e*@.M=Q$! ! ! ! ! ! ! ! ",
"0%N=O=O=P=P=)+P=P=P=P=P=)+Q=O=' R=S=T=U=O=0%0%N=P=Q=P=P=P=P=Q=V=P=P=W=X=X=! ! ! ! ! ! ! ! ",
"+%+%+%+%+%+%+%+%+%+%+%+%+%+%+%Y=Q$+%Z=+%+%+%+%+%+%+%+%+%+%+%+%+%+%+%+%`=Q$! ! ! ! ! ! ! ! ",
"! ! ! ! ! ! ! ! ! ! ! ! ! ! ! ! ! ! ! ! ! ! ! ! ! ! ! ! ! ! ! ! ! ! ! ! ! ! ! ! ! ! ! ! ! ",
"! ! ! ! ! ! ! ! ! ! ! ! ! ! ! ! ! ! ! ! ! ! ! ! ! ! ! ! ! ! ! ! ! ! ! ! ! ! ! ! ! ! ! ! ! ",
"! ! ! ! ! ! ! ! ! ! ! ! ! ! ! ! ! ! ! ! ! ! ! ! ! ! ! ! ! ! ! ! ! ! ! ! ! ! ! ! ! ! ! ! ! ",
"! ! ! ! ! ! ! ! ! ! ! ! ! ! ! ! ! ! ! ! ! ! ! ! ! ! ! ! ! ! ! ! ! ! ! ! ! ! ! ! ! ! ! ! ! ",
"! ! ! ! ! ! ! ! ! ! ! ! ! ! ! ! ! ! ! ! ! ! ! ! ! ! ! ! ! ! ! ! ! ! ! ! ! ! ! ! ! ! ! ! ! "};
